<?xml version="1.0" encoding="UTF-8" standalone="no"?>
<!-- Created with Inkscape (http://www.inkscape.org/) -->

<svg
   width="32in"
   height="48in"
   viewBox="0 0 812.8 1219.2"
   version="1.1"
   id="svg5"
   xmlns:xlink="http://www.w3.org/1999/xlink"
   xmlns="http://www.w3.org/2000/svg"
   xmlns:svg="http://www.w3.org/2000/svg">
  <defs
     id="defs2">
    <rect
       id="SVGID_1_"
       x="14.3"
       width="271.29999"
       height="480"
       y="0" />
    <rect
       id="SVGID_1_-3"
       x="14.3"
       width="271.29999"
       height="480"
       y="0" />
  </defs>
  <g
     id="layer1">
    <g
       id="g353"
       transform="matrix(2.7326016,0,0,2.7326016,-8.4923984,-57.855791)">
      <rect
         class="st0"
         width="300"
         height="480"
         id="rect224"
         x="0"
         y="0" />
      <g
         id="g302"
         transform="translate(14.400024)">
	<defs
   id="defs227">
		<rect
   id="rect312"
   x="14.3"
   width="271.29999"
   height="480"
   y="0" />

	</defs>

	<clipPath
   id="SVGID_00000016778714131011166610000005831433743175168421_">
		<use
   xlink:href="#SVGID_1_-3"
   style="overflow:visible"
   id="use229"
   x="0"
   y="0"
   width="100%"
   height="100%" />

	</clipPath>

	<g
   clip-path="url(#SVGID_00000016778714131011166610000005831433743175168421_)"
   id="g300">
		<g
   id="g234">
			<rect
   x="14.3"
   class="st0"
   width="271.29999"
   height="480"
   id="rect232"
   y="0" />

		</g>

		<path
   class="st2"
   d="m 230.2,441.5 -7.2,-0.8 -9.5,-1.1 -9.2,-1.1 -9.5,-1.2 -9.2,-1.2 -9.5,-1.2 -9.5,-1.3 -9.2,-1.3 -9.5,-1.4 -7.1,-1.1 0.4,-0.8 -0.2,-0.9 -1.2,-1.9 -0.6,-1.8 -0.5,-0.9 -3.3,-2 -0.5,-0.7 0.1,-0.9 -0.8,-0.7 -0.9,-2.2 -1.5,-2.3 -0.4,-1.2 0.1,-0.9 0.7,-2.2 0.1,-0.9 -0.5,-0.4 -1.8,-0.3 -0.8,-0.7 -0.2,-0.6 0.1,-0.6 1.4,-1.2 1.3,-2.7 0.4,-2.3 -0.2,-4.7 0.1,-0.6 0.8,-1.1 0.2,-1.1 -0.1,-1.5 -0.8,-2.5 -0.2,-8 -3.3,-7 -1,-1.3 -0.8,-0.4 -0.9,-0.1 -1.6,0.9 h -0.3 l -0.2,-0.3 -0.7,-1.3 -0.7,-1.3 -0.2,-0.3 0.4,-0.5 0.1,-0.6 -0.1,-0.9 -0.2,-0.6 -0.5,-0.5 -0.3,0.2 h -0.3 -0.3 l -0.2,-0.3 -0.7,-1 -3.8,-3.9 0.1,-0.6 1.4,-1.2 -0.1,-0.9 -0.4,-1 -2.8,-4.3 -3,-1.4 -1.2,-1.4 -0.2,-0.6 0.1,-2.3 -0.2,-0.3 -0.2,-0.3 -1.5,-1.4 -0.7,-1 -1.3,-1.1 -0.4,-1 -0.2,-3.6 -1.1,-2 -0.3,-1.5 -0.9,-1.3 -0.6,-1.6 -1.2,-1.4 -0.7,-4 -0.7,-1 -0.7,-0.7 -0.9,0.4 -0.7,0.5 -0.7,0.5 -0.2,1.1 -0.3,-0.1 h -1.7 l -0.4,-1 -1.3,-5.6 -0.6,-1.3 -2.6,-4.9 -1,-3.8 -0.5,-0.4 -0.7,0.5 -4.2,-0.8 -3,-2.6 -0.7,-1 -0.6,-1.6 2.5,-2.5 0.2,-0.9 -0.5,-0.4 -2.2,-1.9 -2.2,-2.2 -0.7,0.5 -0.6,1.4 -0.3,0.2 -3,0.6 -0.6,-0.1 -0.4,-1 0.2,-1.1 0.6,-1.4 -0.6,-1.3 v -1.5 l -1,-2.3 0.9,-1.6 0.2,-1.1 -0.3,-1.3 -0.8,-1.7 -0.2,-1.8 -0.5,-1.6 -0.4,-0.7 -2.2,-0.4 -0.4,-0.7 -0.1,-2.1 0.1,-2.1 -0.9,-1.1 -0.8,-0.5 0.4,-2 -0.3,-1.3 -2.1,-2.5 -1.3,-0.9 -0.7,0.8 -0.7,2.2 -0.2,-0.3 -4,-2.9 -0.9,-1.4 -1.1,-4.1 -0.5,-0.4 -3.2,-1 -1.2,0.1 -0.5,-0.4 -0.8,-1.4 -1.3,-3.3 -0.4,-1 -0.8,-0.2 0.4,-1.7 -0.2,-1.6 0.1,-0.3 0.5,0.1 3,0.6 0.4,-0.5 -1.1,-2.7 -1.3,-0.6 -0.4,-0.7 v -1.5 l -0.9,-1.1 -0.2,-1.8 2.8,-13 2.8,-13 2.9,-13.3 2.8,-13.1 2.5,-13.2 2.9,-13.4 2.9,-13.2 2.9,-13.2 2.9,-13.3 2.9,-13.6 2.8,-13.3 2.9,-13.4 2.9,-13.4 3,-13.8 2.9,-13.5 2.9,-13.5 11,2.3 11.3,2.3 11.1,2.2 11.1,2.1 11.1,2.1 11.3,2 11.1,1.9 11.1,1.8 11.4,1.8 11.1,1.7 11.2,1.6 11.2,1.5 11.4,1.5 11.2,1.4 11.2,1.3 11.4,1.3 -1.3,12.3 -1.3,12.5 -1.3,12.2 -1.3,12.4 -1.3,12.1 -1.3,12.4 -1.3,12 -1.3,12 -1.3,12.3 -1.3,12 -1.3,12.2 -1.3,11.9 -1.3,12.2 -1.3,11.8 -1.3,12.1 -1.3,11.8 -1.3,12.1 -1.3,11.7 -1.3,12 -1.3,11.7 -1.2,11.7 -1.3,11.9 -1.2,11.6 -1.3,11.9 -1.2,11.6 -1.3,11.9 -1.2,11.6 -1.3,11.8 -1.2,11.5 -1.3,11.8 -1.2,11.5 z"
   id="path236" />

		<g
   id="g298">
			<g
   id="g296">
				<g
   id="g294">
					<path
   class="st3"
   d="m 171.3,410.2 c 0,0.3 -0.2,0.5 -0.5,0.5 -0.3,0 -0.5,-0.2 -0.5,-0.5 0,-0.3 0.2,-0.5 0.5,-0.5 0.3,0 0.5,0.2 0.5,0.5 z"
   id="path238" />

					<path
   class="st3"
   d="m 159,407.3 c 0,0.3 -0.2,0.5 -0.5,0.5 -0.3,0 -0.5,-0.2 -0.5,-0.5 0,-0.3 0.2,-0.5 0.5,-0.5 0.3,0 0.5,0.2 0.5,0.5 z"
   id="path240" />

					<path
   class="st3"
   d="m 219.7,404.3 c 0,0.3 -0.2,0.5 -0.5,0.5 -0.3,0 -0.5,-0.2 -0.5,-0.5 0,-0.3 0.2,-0.5 0.5,-0.5 0.3,0 0.5,0.2 0.5,0.5 z"
   id="path242" />

					<path
   class="st3"
   d="m 195.6,383.3 c 0,0.3 -0.2,0.5 -0.5,0.5 -0.3,0 -0.5,-0.2 -0.5,-0.5 0,-0.3 0.2,-0.5 0.5,-0.5 0.3,0 0.5,0.2 0.5,0.5 z"
   id="path244" />

					<path
   class="st3"
   d="m 153.2,377.1 c 0,0.3 -0.2,0.5 -0.5,0.5 -0.3,0 -0.5,-0.2 -0.5,-0.5 0,-0.3 0.2,-0.5 0.5,-0.5 0.3,0 0.5,0.2 0.5,0.5 z"
   id="path246" />

					<path
   class="st3"
   d="m 151.4,360.7 c 0,0.3 -0.2,0.5 -0.5,0.5 -0.3,0 -0.5,-0.2 -0.5,-0.5 0,-0.3 0.2,-0.5 0.5,-0.5 0.3,0 0.5,0.3 0.5,0.5 z"
   id="path248" />

					<path
   class="st3"
   d="m 124.4,355.1 c 0,0.3 -0.2,0.5 -0.5,0.5 -0.3,0 -0.5,-0.2 -0.5,-0.5 0,-0.3 0.2,-0.5 0.5,-0.5 0.3,0 0.5,0.2 0.5,0.5 z"
   id="path250" />

					<path
   class="st3"
   d="m 199.5,346.7 c 0,0.3 -0.2,0.5 -0.5,0.5 -0.3,0 -0.5,-0.2 -0.5,-0.5 0,-0.3 0.2,-0.5 0.5,-0.5 0.3,0 0.5,0.3 0.5,0.5 z"
   id="path252" />

					<path
   class="st3"
   d="m 158.8,327.8 c 0,0.3 -0.2,0.5 -0.5,0.5 -0.3,0 -0.5,-0.2 -0.5,-0.5 0,-0.3 0.2,-0.5 0.5,-0.5 0.3,0 0.5,0.3 0.5,0.5 z"
   id="path254" />

					<path
   class="st3"
   d="m 162.9,320 c 0,0.3 -0.2,0.5 -0.5,0.5 -0.3,0 -0.5,-0.2 -0.5,-0.5 0,-0.3 0.2,-0.5 0.5,-0.5 0.3,0 0.5,0.3 0.5,0.5 z"
   id="path256" />

					<path
   class="st3"
   d="m 186.1,321.5 c 0,0.3 -0.2,0.5 -0.5,0.5 -0.3,0 -0.5,-0.2 -0.5,-0.5 0,-0.3 0.2,-0.5 0.5,-0.5 0.3,0 0.5,0.2 0.5,0.5 z"
   id="path258" />

					<path
   class="st3"
   d="m 140.6,312.7 c 0,0.3 -0.2,0.5 -0.5,0.5 -0.3,0 -0.5,-0.2 -0.5,-0.5 0,-0.3 0.2,-0.5 0.5,-0.5 0.3,0 0.5,0.2 0.5,0.5 z"
   id="path260" />

					<path
   class="st3"
   d="m 165.6,313.4 c 0,0.3 -0.2,0.5 -0.5,0.5 -0.3,0 -0.5,-0.2 -0.5,-0.5 0,-0.3 0.2,-0.5 0.5,-0.5 0.3,0 0.5,0.2 0.5,0.5 z"
   id="path262" />

					<path
   class="st3"
   d="m 226.6,308.9 c 0,0.3 -0.2,0.5 -0.5,0.5 -0.3,0 -0.5,-0.2 -0.5,-0.5 0,-0.3 0.2,-0.5 0.5,-0.5 0.3,0 0.5,0.2 0.5,0.5 z"
   id="path264" />

					<path
   class="st3"
   d="m 186.7,297.5 c 0,0.3 -0.2,0.5 -0.5,0.5 -0.3,0 -0.5,-0.2 -0.5,-0.5 0,-0.3 0.2,-0.5 0.5,-0.5 0.3,0 0.5,0.3 0.5,0.5 z"
   id="path266" />

					<path
   class="st3"
   d="m 229.1,291 c 0,0.3 -0.2,0.5 -0.5,0.5 -0.3,0 -0.5,-0.2 -0.5,-0.5 0,-0.3 0.2,-0.5 0.5,-0.5 0.3,0 0.5,0.2 0.5,0.5 z"
   id="path268" />

					<path
   class="st3"
   d="m 175.9,277.4 c 0,0.3 -0.2,0.5 -0.5,0.5 -0.3,0 -0.5,-0.2 -0.5,-0.5 0,-0.3 0.2,-0.5 0.5,-0.5 0.3,0 0.5,0.2 0.5,0.5 z"
   id="path270" />

					<path
   class="st3"
   d="m 116.1,266.4 c 0,0.3 -0.2,0.5 -0.5,0.5 -0.3,0 -0.5,-0.2 -0.5,-0.5 0,-0.3 0.2,-0.5 0.5,-0.5 0.3,0 0.5,0.3 0.5,0.5 z"
   id="path272" />

					<path
   class="st3"
   d="m 160.4,255.1 c 0,0.3 -0.2,0.5 -0.5,0.5 -0.3,0 -0.5,-0.2 -0.5,-0.5 0,-0.3 0.2,-0.5 0.5,-0.5 0.3,0 0.5,0.2 0.5,0.5 z"
   id="path274" />

					<path
   class="st3"
   d="m 135.3,250.3 c 0,0.3 -0.2,0.5 -0.5,0.5 -0.3,0 -0.5,-0.2 -0.5,-0.5 0,-0.3 0.2,-0.5 0.5,-0.5 0.3,0 0.5,0.2 0.5,0.5 z"
   id="path276" />

					<path
   class="st3"
   d="m 234.9,259.8 c 0,0.3 -0.2,0.5 -0.5,0.5 -0.3,0 -0.5,-0.2 -0.5,-0.5 0,-0.3 0.2,-0.5 0.5,-0.5 0.3,0 0.5,0.2 0.5,0.5 z"
   id="path278" />

					<path
   class="st3"
   d="m 185.9,237.6 c 0,0.3 -0.2,0.5 -0.5,0.5 -0.3,0 -0.5,-0.2 -0.5,-0.5 0,-0.3 0.2,-0.5 0.5,-0.5 0.3,0 0.5,0.2 0.5,0.5 z"
   id="path280" />

					<path
   class="st3"
   d="m 212.1,239.5 c 0,0.3 -0.2,0.5 -0.5,0.5 -0.3,0 -0.5,-0.2 -0.5,-0.5 0,-0.3 0.2,-0.5 0.5,-0.5 0.3,0 0.5,0.2 0.5,0.5 z"
   id="path282" />

					<path
   class="st3"
   d="m 79.6,203.3 c 0,0.3 -0.2,0.5 -0.5,0.5 -0.3,0 -0.5,-0.2 -0.5,-0.5 0,-0.3 0.2,-0.5 0.5,-0.5 0.3,0 0.5,0.2 0.5,0.5 z"
   id="path284" />

					<path
   class="st3"
   d="m 126.5,202.8 c 0,0.3 -0.2,0.5 -0.5,0.5 -0.3,0 -0.5,-0.2 -0.5,-0.5 0,-0.3 0.2,-0.5 0.5,-0.5 0.3,0 0.5,0.2 0.5,0.5 z"
   id="path286" />

					<path
   class="st3"
   d="m 115.4,172.3 c 0,0.3 -0.2,0.5 -0.5,0.5 -0.3,0 -0.5,-0.2 -0.5,-0.5 0,-0.3 0.2,-0.5 0.5,-0.5 0.3,0 0.5,0.2 0.5,0.5 z"
   id="path288" />

					<path
   class="st3"
   d="m 232.3,172.6 c 0,0.3 -0.2,0.5 -0.5,0.5 -0.3,0 -0.5,-0.2 -0.5,-0.5 0,-0.3 0.2,-0.5 0.5,-0.5 0.3,0 0.5,0.2 0.5,0.5 z"
   id="path290" />

					<path
   class="st3"
   d="m 153.1,101.5 c 0,0.3 -0.2,0.5 -0.5,0.5 -0.3,0 -0.5,-0.2 -0.5,-0.5 0,-0.3 0.2,-0.5 0.5,-0.5 0.3,0 0.5,0.2 0.5,0.5 z"
   id="path292" />

				</g>

			</g>

		</g>

	</g>

</g>
      <path
         style="fill:#000000;stroke-width:0.0403072"
         d="m 49.629067,427.9177 c 0,-0.0138 0.644149,-1.45843 1.431443,-3.21027 1.431443,-3.18519 1.431443,-3.18519 -1.51361,-9.5097 -1.619778,-3.47848 -2.955181,-6.35091 -2.967561,-6.38318 -0.01956,-0.051 0.264084,-0.0573 2.165036,-0.0482 2.187547,0.0104 2.187547,0.0104 4.037528,4.12176 1.01749,2.26123 1.862521,4.12338 1.877846,4.1381 0.01533,0.0147 0.871293,-1.83985 1.902148,-4.12129 1.874283,-4.14807 1.874283,-4.14807 4.060946,-4.14818 1.202665,-8e-5 2.186664,0.0123 2.186664,0.0275 0,0.0152 -1.96246,4.33213 -4.361022,9.5931 -4.361021,9.56541 -4.361021,9.56541 -6.590219,9.56541 -1.22606,0 -2.229199,-0.0113 -2.229199,-0.0251 z m -10.500014,-3.83159 c -3.168244,-0.40446 -5.763466,-2.68918 -6.528804,-5.74767 -0.188396,-0.75289 -0.237357,-1.24883 -0.21237,-2.15119 0.01521,-0.54929 0.04551,-0.88267 0.109365,-1.2032 0.309288,-1.55259 1.084854,-2.97229 2.22673,-4.07607 3.003146,-2.90297 7.81618,-2.85732 10.754194,0.102 0.233179,0.23487 0.542374,0.58536 0.687097,0.77887 0.287421,0.38429 0.649721,0.97168 0.657532,1.06603 0.0032,0.0394 -0.560259,0.35105 -1.667824,0.92249 -0.920011,0.47467 -1.681817,0.86263 -1.692901,0.86212 -0.01108,-5e-4 -0.09271,-0.12145 -0.181382,-0.26876 -0.23034,-0.38266 -0.814063,-0.96015 -1.224625,-1.21154 -1.676194,-1.02637 -3.875713,-0.62041 -5.049763,0.93202 -0.296267,0.39174 -0.558016,0.92621 -0.68401,1.39668 -0.118304,0.44176 -0.130397,1.35595 -0.02359,1.78308 0.384422,1.53727 1.514875,2.61794 3.072191,2.93692 0.133013,0.0272 0.450432,0.049 0.705374,0.0482 1.228535,-0.003 2.344134,-0.57497 3.085458,-1.58052 0.239883,-0.32538 0.239883,-0.32538 2.286239,-0.32563 2.046356,-2.5e-4 2.046356,-2.5e-4 2.019526,0.11059 -0.05418,0.22381 -0.299397,0.89727 -0.435321,1.19554 -0.576231,1.26445 -1.609693,2.46375 -2.784111,3.23086 -0.925785,0.6047 -2.006204,1.01188 -3.096116,1.16683 -0.375466,0.0534 -1.693066,0.0744 -2.022893,0.0323 z m 31.741884,-0.0169 c -1.723182,-0.19374 -3.347881,-0.97198 -4.57235,-2.19017 -0.966961,-0.96201 -1.659082,-2.14928 -1.998665,-3.42854 -0.273813,-1.03149 -0.256849,-0.57046 -0.271036,-7.36613 -0.01285,-6.15691 -0.01285,-6.15691 1.903081,-6.15691 1.915933,0 1.915933,0 1.915933,2.41879 0,2.41879 0,2.41879 0.403544,2.21629 1.133625,-0.56888 2.146438,-0.80591 3.443631,-0.80591 0.788027,0 1.365222,0.0738 2.057824,0.26334 2.761528,0.75545 4.959489,3.11762 5.497106,5.90776 0.49999,2.59486 -0.294581,5.15712 -2.171766,7.00331 -1.614893,1.58823 -3.948649,2.39211 -6.207302,2.13817 z m 1.685122,-3.90816 c 2.327875,-0.54013 3.602585,-3.04773 2.666963,-5.24641 -0.29265,-0.68771 -0.960838,-1.44552 -1.589355,-1.80253 -1.129089,-0.64135 -2.433512,-0.69224 -3.605603,-0.14068 -1.011989,0.47622 -1.753138,1.39032 -2.067291,2.54974 -0.130789,0.48268 -0.121899,1.34445 0.01931,1.87201 0.285124,1.0652 0.957831,1.90978 1.933832,2.4279 0.805434,0.42758 1.744085,0.54835 2.642144,0.33997 z m 15.203577,3.90816 c -1.443375,-0.16228 -2.884711,-0.76941 -4.011764,-1.68986 -0.390781,-0.31916 -1.08028,-1.04868 -1.359809,-1.43876 -1.065295,-1.4866 -1.555676,-3.21279 -1.435637,-5.05358 0.225338,-3.45543 2.7583,-6.31914 6.206633,-7.0171 0.408138,-0.0826 0.572136,-0.0929 1.46718,-0.0921 0.940262,8.1e-4 1.041388,0.008 1.511519,0.10936 0.713005,0.15346 1.185389,0.31677 1.833975,0.63402 0.893122,0.43686 1.515618,0.88995 2.203048,1.60353 1.6272,1.68907 2.402267,4.13124 2.037144,6.41888 -0.04825,0.30229 -0.04825,0.30229 -5.600558,0.31251 -3.053771,0.006 -5.552311,0.0198 -5.552311,0.0316 0,0.0502 0.225442,0.46085 0.375356,0.68374 0.230739,0.34306 0.720435,0.82102 1.08415,1.05818 1.079555,0.70391 2.408413,0.82549 3.600131,0.32937 0.316024,-0.13156 0.735996,-0.38379 0.908377,-0.54556 0.10332,-0.097 0.10332,-0.097 2.407063,-0.0866 2.303744,0.0104 2.303744,0.0104 2.110406,0.41348 -1.158677,2.41557 -3.477144,4.05193 -6.138057,4.3322 -0.441711,0.0465 -1.217398,0.0449 -1.646846,-0.003 z m 4.39348,-9.10661 c 0,-0.0672 -0.200222,-0.4438 -0.365606,-0.68772 -0.22265,-0.32838 -0.522103,-0.64275 -0.854162,-0.89672 -1.906842,-1.45841 -4.662755,-0.81943 -5.747853,1.33271 -0.06954,0.13792 -0.126439,0.26035 -0.126439,0.27207 0,0.0117 1.596163,0.0213 3.54703,0.0213 2.413894,0 3.54703,-0.0133 3.54703,-0.0416 z m 5.844537,5.04179 c 0,-3.41227 0.01019,-4.18652 0.06013,-4.56478 0.296987,-2.24979 1.530958,-4.21073 3.437527,-5.46268 0.43354,-0.28467 1.29807,-0.6968 1.78259,-0.84977 0.69262,-0.21867 1.58643,-0.37053 2.18087,-0.37053 0.19727,0 0.19727,0 0.19727,1.9088 0,1.90879 0,1.90879 -0.31837,1.93534 -1.58893,0.13252 -2.88614,1.20253 -3.37802,2.78639 -0.11266,0.36276 -0.11266,0.36276 -0.12382,4.54463 -0.0112,4.18187 -0.0112,4.18187 -1.924672,4.18187 -1.91351,0 -1.91351,0 -1.913509,-4.10927 z m 15.276467,4.06482 c -3.13159,-0.35209 -5.7724,-2.61016 -6.57104,-5.61871 -0.70569,-2.65844 -8e-4,-5.40009 1.89431,-7.37081 1.07473,-1.11746 2.50123,-1.89134 4.07212,-2.20913 0.41375,-0.0837 0.57176,-0.0936 1.47122,-0.092 0.93537,0.002 1.04399,0.01 1.51387,0.10952 2.33108,0.49622 4.27308,1.98361 5.32786,4.08067 0.26715,0.53114 0.44404,0.99574 0.57343,1.50621 0.24108,0.95107 0.2335,0.78822 0.25133,5.39639 0.0164,4.24233 0.0164,4.24233 -4.10719,4.2371 -2.26799,-0.003 -4.25964,-0.0205 -4.42591,-0.0392 z m 4.67562,-5.92271 c 0,-1.78532 -0.0105,-2.18849 -0.0632,-2.44417 -0.39592,-1.91677 -2.06508,-3.21701 -3.98462,-3.10395 -1.42216,0.0838 -2.6764,0.93595 -3.27071,2.22226 -0.25492,0.55175 -0.31995,0.8869 -0.31715,1.63466 0.002,0.60596 0.0122,0.69703 0.11267,1.02465 0.46423,1.51508 1.68985,2.56046 3.23425,2.75863 0.15303,0.0197 1.18062,0.038 2.28352,0.0408 2.00528,0.005 2.00528,0.005 2.00528,-2.13288 z M 72.059999,400.88125 c -0.371634,-0.17569 -0.581994,-0.5084 -0.583569,-0.92298 -0.0015,-0.3973 0.180042,-0.70355 0.53301,-0.89912 0.211787,-0.11735 0.211787,-0.11735 4.101428,-0.14087 3.289124,-0.0199 3.979872,-0.0341 4.474094,-0.0917 1.323885,-0.15451 2.301143,-0.35554 3.303586,-0.6796 0.566736,-0.18321 1.432589,-0.52328 1.500152,-0.58921 0.01503,-0.0147 -0.163651,-0.23527 -0.397082,-0.49021 -0.233431,-0.25494 -0.644245,-0.73561 -0.912916,-1.06813 -0.268672,-0.33254 -0.652928,-0.77436 -0.853904,-0.98182 -0.365404,-0.37721 -0.365404,-0.37721 -0.673334,-0.19026 -0.456991,0.27745 -1.394495,0.71749 -1.966502,0.92303 -0.942127,0.33853 -2.268873,0.62524 -3.567183,0.77088 -1.279825,0.14357 -1.609638,0.15274 -6.161529,0.17133 -4.589548,0.0188 -4.589548,0.0188 -4.843781,-0.10642 -0.645421,-0.31775 -0.774444,-1.15097 -0.253996,-1.6403 0.07399,-0.0696 0.198014,-0.16026 0.275606,-0.20154 0.134488,-0.0715 0.358437,-0.0761 4.796551,-0.0983 3.954181,-0.0197 4.761735,-0.0336 5.360852,-0.0918 1.864005,-0.18115 3.270225,-0.5143 4.45394,-1.0552 0.322458,-0.14735 0.322458,-0.14735 0.181383,-0.21929 -0.508813,-0.25951 -1.651436,-0.58884 -2.438583,-0.70286 -0.925166,-0.134 -1.581214,-0.14396 -9.572949,-0.14519 -7.961834,-0.002 -8.001858,-0.002 -8.182353,-0.0833 -0.362001,-0.16387 -0.561753,-0.45399 -0.594636,-0.86363 -0.02487,-0.30981 0.09079,-0.60078 0.321756,-0.80944 0.309783,-0.27987 -0.422273,-0.25842 8.817849,-0.25842 9.099884,0 8.864901,-0.005 10.094063,0.22186 1.214991,0.22439 2.519246,0.71555 3.407467,1.28317 0.220173,0.14071 0.220173,0.14071 0.462387,-0.0675 0.693513,-0.59608 2.683086,-2.56811 2.683086,-2.65943 0,-0.0387 -0.837437,-0.34636 -1.341539,-0.49286 -0.911486,-0.26488 -1.857523,-0.42296 -2.993875,-0.50025 -0.342683,-0.0233 -2.31122,-0.0412 -4.567791,-0.0416 -2.921254,-4.6e-4 -4.007241,-0.0131 -4.123793,-0.048 -0.206958,-0.062 -0.508568,-0.33042 -0.601719,-0.5355 -0.111498,-0.24545 -0.101833,-0.6583 0.02106,-0.89973 0.114657,-0.22524 0.222306,-0.33081 0.467523,-0.45846 0.181381,-0.0944 0.181381,-0.0944 3.909794,-0.10683 2.196832,-0.007 4.103087,0.005 4.640505,0.0298 2.268657,0.10497 4.082677,0.51591 5.777568,1.30884 0.464363,0.21725 0.34278,0.25436 0.954973,-0.29149 0.507875,-0.45284 1.337246,-1.07759 1.822032,-1.37251 0.397562,-0.24186 0.397562,-0.24186 0.181383,-0.37947 -0.685225,-0.4362 -1.425076,-0.79805 -2.125578,-1.0396 -0.566678,-0.1954 -0.79287,-0.25454 -1.401113,-0.36639 -0.4641,-0.0853 -0.594978,-0.0886 -4.39115,-0.11097 -3.912793,-0.023 -3.912793,-0.023 -4.08141,-0.13463 -0.666527,-0.44123 -0.628864,-1.40639 0.06911,-1.77102 0.215477,-0.11256 0.215477,-0.11256 4.050377,-0.11256 4.137267,0 4.375962,0.01 5.297085,0.2182 1.636552,0.37021 3.30237,1.19333 4.918336,2.43025 0.334936,0.25638 0.334936,0.25638 0.604607,0.21535 0.483855,-0.0736 3.905232,-0.13987 4.550533,-0.0881 1.661146,0.13322 3.18358,0.66803 4.64348,1.63116 0.78618,0.51868 1.26947,0.92916 2.38184,2.02303 0.56531,0.55591 1.14573,1.09387 1.28983,1.19547 0.64485,0.45468 1.36074,0.70009 2.38511,0.81765 0.41559,0.0477 0.23449,0.0528 -2.01825,0.0571 -2.4748,0.005 -2.4748,0.005 -3.14397,-0.65134 -1.31214,-1.28641 -2.2736,-1.97517 -3.414252,-2.44586 -1.135259,-0.46847 -1.705883,-0.56751 -3.432001,-0.59576 -0.740169,-0.0121 -1.299897,-0.006 -1.299881,0.0143 0,0.0795 1.250029,1.11668 2.036301,1.68969 1.403108,1.02253 2.782503,1.67473 4.065253,1.92212 0.44651,0.0861 0.48097,0.0866 8.44936,0.10924 8.94962,0.0254 8.09963,-0.006 8.3913,0.31627 0.46002,0.5092 0.32086,1.28129 -0.28956,1.60641 -0.13063,0.0696 -0.29472,0.0768 -2.21689,0.0982 -2.35912,0.0263 -2.36376,0.0268 -3.09208,0.38107 -0.58504,0.28459 -1.10138,0.70715 -2.28893,1.87318 -0.59857,0.58772 -1.26969,1.2245 -1.49138,1.41506 -1.72194,1.48015 -3.40609,2.25877 -5.54437,2.5633 -0.75113,0.10698 -2.63815,0.0971 -3.358796,-0.0176 -0.519237,-0.0827 -0.519237,-0.0827 -0.947218,0.258 -1.47313,1.17255 -2.866799,1.814 -4.375225,2.01377 -0.573942,0.076 -1.76919,0.0557 -2.421287,-0.0412 -1.536412,-0.22821 -2.875892,-0.73636 -4.204927,-1.59523 -0.449631,-0.29057 -0.449631,-0.29057 -0.883392,-0.0692 -1.929371,0.98469 -4.207442,1.5521 -6.90306,1.71939 -0.365787,0.0227 -2.206816,0.0412 -4.091176,0.0411 -3.426109,-2e-4 -3.426109,-2e-4 -3.627644,-0.0955 z m 22.41416,-2.09387 c 0.641355,-0.16266 1.35002,-0.47303 1.878241,-0.82259 0.155702,-0.10304 0.155702,-0.10304 -0.52035,-0.43536 -1.280913,-0.62967 -2.313501,-1.3341 -3.400981,-2.32017 -0.346806,-0.31447 -0.346806,-0.31447 -0.584453,-0.10505 -0.130704,0.11519 -0.664625,0.61765 -1.186489,1.1166 -0.521866,0.49894 -1.116432,1.04768 -1.321265,1.21941 -0.372418,0.31224 -0.372418,0.31224 -0.240218,0.3933 0.487176,0.29871 1.417408,0.67266 2.110183,0.84829 0.726202,0.18409 1.230876,0.2377 2.093043,0.22232 0.659682,-0.0118 0.822172,-0.028 1.172289,-0.11675 z m 5.118162,-0.76256 c 0.118386,-0.13101 0.118386,-0.13101 -0.01261,-0.0126 -0.122111,0.11035 -0.149528,0.14361 -0.118386,0.14361 0.0069,0 0.06588,-0.0589 0.130998,-0.13099 z m 0.763299,-0.71546 c 0.28756,-0.28819 0.51377,-0.52399 0.50268,-0.52399 -0.0111,0 -0.25543,0.2358 -0.54298,0.52399 -0.28756,0.2882 -0.513765,0.524 -0.50268,0.524 0.01108,0 0.25543,-0.2358 0.54298,-0.524 z m 1.75337,-0.64597 c 1.08785,-0.0964 2.12634,-0.37422 2.99995,-0.80243 1.00228,-0.49129 1.61673,-0.96639 3.06177,-2.36739 1.03238,-1.00091 1.03238,-1.00091 0.51847,-1.03329 -1.54588,-0.0974 -2.95895,0.30609 -4.34528,1.24069 -0.82704,0.55755 -1.7833,1.38825 -2.91947,2.53614 -0.46288,0.46765 -0.46288,0.46765 -0.12093,0.46751 0.18808,-8e-5 0.55055,-0.0186 0.80549,-0.0412 z m -14.5233,-0.44878 c 0.435124,-0.34297 0.880651,-0.74654 1.684255,-1.52563 0.377537,-0.36601 0.847925,-0.81203 1.045305,-0.99115 0.358875,-0.32567 0.358875,-0.32567 -0.31968,-1.12818 -0.733662,-0.86769 -1.518262,-1.67819 -1.984982,-2.05049 -0.293194,-0.23388 -0.293194,-0.23388 -1.775071,1.23614 -0.815035,0.80851 -1.53114,1.50229 -1.591342,1.54174 -0.109466,0.0718 -0.109466,0.0718 0.133521,0.33148 0.133647,0.14287 0.554022,0.635 0.934171,1.09362 0.51889,0.62601 1.447776,1.66528 1.551365,1.73572 0.0041,0.002 0.149198,-0.10668 0.322458,-0.24325 z m 12.041364,-1.11335 c 1.255116,-1.24287 1.819516,-1.76794 2.492576,-2.3189 0.21646,-0.17719 0.38877,-0.32632 0.38292,-0.33139 -0.0294,-0.0254 -3.303776,0.0631 -3.739061,0.10108 -1.867797,0.16325 -3.190488,0.44557 -4.383404,0.93562 -0.271569,0.11156 -0.493762,0.21788 -0.493762,0.23627 0,0.0636 1.029885,0.86132 1.571979,1.21761 0.666645,0.43814 1.664093,0.94086 2.337815,1.17828 0.277112,0.0977 0.529681,0.17852 0.561261,0.1797 0.03158,8.1e-4 0.602935,-0.53804 1.269676,-1.19827 z m -6.779559,-3.17366 c 1.026736,-0.53621 2.195498,-0.9282 3.411432,-1.1442 0.3774,-0.067 0.3774,-0.067 -0.28215,-0.53699 -1.011943,-0.72105 -2.186454,-1.67227 -3.360984,-2.72204 -0.473605,-0.4233 -0.615389,-0.52944 -0.681501,-0.5102 -0.208545,0.0607 -1.011403,0.4714 -1.31735,0.67389 -0.342845,0.22691 -0.929984,0.6845 -1.246907,0.97179 -0.173856,0.1576 -0.173856,0.1576 0.06517,0.36132 0.642585,0.54766 1.357102,1.29553 2.355151,2.46509 0.481215,0.56391 0.571862,0.66378 0.602431,0.66378 0.01582,0 0.220432,-0.1001 0.454713,-0.22244 z m -30.866172,4.72371 c -0.629392,-0.24251 -0.875987,-0.89494 -0.558634,-1.47802 0.122201,-0.22452 0.372935,-0.4171 0.634915,-0.48764 0.09452,-0.0255 0.44123,-0.0375 0.848835,-0.0295 0.766185,0.0151 0.879759,0.0472 1.138,0.32189 0.211341,0.22479 0.274473,0.38561 0.274325,0.69883 -2.02e-4,0.43757 -0.197012,0.74223 -0.602347,0.93246 -0.188288,0.0884 -0.247901,0.0944 -0.90691,0.0919 -0.436835,-0.002 -0.752129,-0.0207 -0.828184,-0.05 z m -11.413515,-4.30318 c -0.197456,-0.0977 -0.438473,-0.35008 -0.519433,-0.54385 -0.08036,-0.19232 -0.07063,-0.60687 0.01888,-0.80388 0.09402,-0.20698 0.301165,-0.41412 0.508142,-0.50814 0.206914,-0.094 0.688056,-0.10091 0.899023,-0.0129 0.630144,0.26282 0.811016,1.14097 0.33894,1.64557 -0.277774,0.29691 -0.87899,0.40466 -1.245546,0.22321 z m 3.988745,-0.0192 c -0.258744,-0.12903 -0.436359,-0.33573 -0.51501,-0.59936 -0.07449,-0.24968 -0.07444,-0.36037 2.41e-4,-0.6119 0.07543,-0.25399 0.289061,-0.50514 0.52336,-0.61528 0.176693,-0.0831 0.232768,-0.0856 1.907399,-0.0856 1.725352,0 1.725352,0 1.945003,0.13125 0.655625,0.39178 0.66756,1.34315 0.02185,1.74158 -0.198315,0.12237 -0.198315,0.12237 -1.934743,0.13359 -1.73642,0.0112 -1.73642,0.0112 -1.948095,-0.0943 z m 7.976832,-4.27462 c -0.643084,-0.32046 -0.754892,-1.18908 -0.215751,-1.67616 0.294452,-0.26602 0.09723,-0.25404 4.179977,-0.25404 3.543733,0 3.714518,0.003 3.849333,0.0753 0.258608,0.13803 0.383978,0.25577 0.500723,0.47027 0.09426,0.17318 0.11574,0.262 0.11574,0.47852 0,0.39331 -0.16093,0.67146 -0.515695,0.89134 -0.161228,0.0999 -0.161228,0.0999 -3.93051,0.1108 -3.769281,0.0109 -3.769281,0.0109 -3.983817,-0.096 z m 11.743507,-4.25232 c -0.370221,-0.19623 -0.555839,-0.50554 -0.55594,-0.92641 -1.41e-4,-0.59644 0.426244,-1.00387 1.050569,-1.00387 1.043415,0 1.437785,1.27307 0.580222,1.873 -0.159644,0.11168 -0.206462,0.12309 -0.544147,0.13248 -0.311618,0.009 -0.394723,-0.003 -0.530704,-0.0752 z"
         id="path385" />
    </g>
  </g>
  <style
     type="text/css"
     id="style9">
	.st0{fill:#FFFFFF;}
	.st1{clip-path:url(#SVGID_00000094620268151681334360000001914906628622133653_);}
	.st2{fill:none;stroke:#000000;stroke-miterlimit:2;}
	.st3{fill:#636EFA;}
</style>
  <style
     type="text/css"
     id="style222">
	.st0{fill:#FFFFFF;}
	.st1{clip-path:url(#SVGID_00000094620268151681334360000001914906628622133653_);}
	.st2{fill:none;stroke:#000000;stroke-miterlimit:2;}
	.st3{fill:#636EFA;}
</style>
</svg>
