<?xml version="1.0" encoding="utf-8"?>
<!-- Generator: Adobe Illustrator 27.1.0, SVG Export Plug-In . SVG Version: 6.00 Build 0)  -->
<svg version="1.1" id="Layer_1" xmlns="http://www.w3.org/2000/svg" xmlns:xlink="http://www.w3.org/1999/xlink" x="0px" y="0px"
	 viewBox="0 0 300 480" style="enable-background:new 0 0 300 480;" xml:space="preserve">
<style type="text/css">
	.st0{fill:#FFFFFF;}
	.st1{clip-path:url(#SVGID_00000094620268151681334360000001914906628622133653_);}
	.st2{fill:none;stroke:#000000;stroke-miterlimit:2;}
	.st3{fill:#636EFA;}
</style>
<rect class="st0" width="300" height="480"/>
<g>
	<defs>
		<rect id="SVGID_1_" x="14.3" width="271.3" height="480"/>
	</defs>
	<clipPath id="SVGID_00000016778714131011166610000005831433743175168421_">
		<use xlink:href="#SVGID_1_"  style="overflow:visible;"/>
	</clipPath>
	<g style="clip-path:url(#SVGID_00000016778714131011166610000005831433743175168421_);">
		<g>
			<rect x="14.3" class="st0" width="271.3" height="480"/>
		</g>
		<path class="st2" d="M230.2,441.5l-7.2-0.8l-9.5-1.1l-9.2-1.1l-9.5-1.2l-9.2-1.2l-9.5-1.2l-9.5-1.3l-9.2-1.3l-9.5-1.4l-7.1-1.1
			l0.4-0.8l-0.2-0.9l-1.2-1.9l-0.6-1.8l-0.5-0.9l-3.3-2l-0.5-0.7l0.1-0.9l-0.8-0.7l-0.9-2.2l-1.5-2.3l-0.4-1.2l0.1-0.9l0.7-2.2
			l0.1-0.9l-0.5-0.4l-1.8-0.3l-0.8-0.7l-0.2-0.6l0.1-0.6l1.4-1.2l1.3-2.7l0.4-2.3l-0.2-4.7l0.1-0.6l0.8-1.1l0.2-1.1l-0.1-1.5
			l-0.8-2.5l-0.2-8l-3.3-7l-1-1.3l-0.8-0.4l-0.9-0.1l-1.6,0.9l-0.3,0l-0.2-0.3l-0.7-1.3l-0.7-1.3l-0.2-0.3l0.4-0.5l0.1-0.6l-0.1-0.9
			l-0.2-0.6L122,367l-0.3,0.2l-0.3,0l-0.3,0l-0.2-0.3l-0.7-1l-3.8-3.9l0.1-0.6l1.4-1.2l-0.1-0.9l-0.4-1l-2.8-4.3l-3-1.4l-1.2-1.4
			l-0.2-0.6l0.1-2.3l-0.2-0.3l-0.2-0.3l-1.5-1.4l-0.7-1l-1.3-1.1l-0.4-1l-0.2-3.6l-1.1-2l-0.3-1.5l-0.9-1.3l-0.6-1.6l-1.2-1.4
			l-0.7-4l-0.7-1l-0.7-0.7l-0.9,0.4l-0.7,0.5l-0.7,0.5l-0.2,1.1l-0.3-0.1l-1.7,0l-0.4-1l-1.3-5.6l-0.6-1.3l-2.6-4.9l-1-3.8l-0.5-0.4
			l-0.7,0.5l-4.2-0.8l-3-2.6l-0.7-1l-0.6-1.6l2.5-2.5l0.2-0.9l-0.5-0.4l-2.2-1.9l-2.2-2.2l-0.7,0.5l-0.6,1.4l-0.3,0.2l-3,0.6
			l-0.6-0.1l-0.4-1l0.2-1.1l0.6-1.4l-0.6-1.3l0-1.5l-1-2.3l0.9-1.6l0.2-1.1l-0.3-1.3l-0.8-1.7l-0.2-1.8l-0.5-1.6l-0.4-0.7l-2.2-0.4
			l-0.4-0.7l-0.1-2.1l0.1-2.1l-0.9-1.1l-0.8-0.5l0.4-2l-0.3-1.3l-2.1-2.5l-1.3-0.9l-0.7,0.8l-0.7,2.2l-0.2-0.3l-4-2.9l-0.9-1.4
			l-1.1-4.1l-0.5-0.4l-3.2-1l-1.2,0.1l-0.5-0.4l-0.8-1.4l-1.3-3.3l-0.4-1l-0.8-0.2l0.4-1.7l-0.2-1.6l0.1-0.3l0.5,0.1l3,0.6l0.4-0.5
			l-1.1-2.7l-1.3-0.6l-0.4-0.7l0-1.5l-0.9-1.1l-0.2-1.8l2.8-13l2.8-13l2.9-13.3l2.8-13.1L60,178l2.9-13.4l2.9-13.2l2.9-13.2
			l2.9-13.3l2.9-13.6L77.3,98l2.9-13.4l2.9-13.4l3-13.8L89,43.9l2.9-13.5l11,2.3l11.3,2.3l11.1,2.2l11.1,2.1l11.1,2.1l11.3,2
			l11.1,1.9l11.1,1.8l11.4,1.8l11.1,1.7l11.2,1.6l11.2,1.5l11.4,1.5l11.2,1.4l11.2,1.3l11.4,1.3l-1.3,12.3l-1.3,12.5l-1.3,12.2
			l-1.3,12.4l-1.3,12.1l-1.3,12.4l-1.3,12l-1.3,12l-1.3,12.3l-1.3,12l-1.3,12.2l-1.3,11.9l-1.3,12.2l-1.3,11.8l-1.3,12.1l-1.3,11.8
			l-1.3,12.1l-1.3,11.7l-1.3,12l-1.3,11.7l-1.2,11.7l-1.3,11.9l-1.2,11.6l-1.3,11.9l-1.2,11.6l-1.3,11.9l-1.2,11.6l-1.3,11.8
			l-1.2,11.5l-1.3,11.8l-1.2,11.5L230.2,441.5z"/>
		<g>
			<g>
				<g>
					<path class="st3" d="M171.3,410.2c0,0.3-0.2,0.5-0.5,0.5s-0.5-0.2-0.5-0.5s0.2-0.5,0.5-0.5S171.3,409.9,171.3,410.2z"/>
					<path class="st3" d="M159,407.3c0,0.3-0.2,0.5-0.5,0.5s-0.5-0.2-0.5-0.5s0.2-0.5,0.5-0.5S159,407,159,407.3z"/>
					<path class="st3" d="M219.7,404.3c0,0.3-0.2,0.5-0.5,0.5s-0.5-0.2-0.5-0.5s0.2-0.5,0.5-0.5S219.7,404,219.7,404.3z"/>
					<path class="st3" d="M195.6,383.3c0,0.3-0.2,0.5-0.5,0.5s-0.5-0.2-0.5-0.5s0.2-0.5,0.5-0.5S195.6,383,195.6,383.3z"/>
					<path class="st3" d="M153.2,377.1c0,0.3-0.2,0.5-0.5,0.5s-0.5-0.2-0.5-0.5s0.2-0.5,0.5-0.5S153.2,376.8,153.2,377.1z"/>
					<path class="st3" d="M151.4,360.7c0,0.3-0.2,0.5-0.5,0.5s-0.5-0.2-0.5-0.5s0.2-0.5,0.5-0.5S151.4,360.5,151.4,360.7z"/>
					<path class="st3" d="M124.4,355.1c0,0.3-0.2,0.5-0.5,0.5s-0.5-0.2-0.5-0.5s0.2-0.5,0.5-0.5S124.4,354.8,124.4,355.1z"/>
					<path class="st3" d="M199.5,346.7c0,0.3-0.2,0.5-0.5,0.5s-0.5-0.2-0.5-0.5s0.2-0.5,0.5-0.5S199.5,346.5,199.5,346.7z"/>
					<path class="st3" d="M158.8,327.8c0,0.3-0.2,0.5-0.5,0.5s-0.5-0.2-0.5-0.5s0.2-0.5,0.5-0.5S158.8,327.6,158.8,327.8z"/>
					<path class="st3" d="M162.9,320c0,0.3-0.2,0.5-0.5,0.5s-0.5-0.2-0.5-0.5s0.2-0.5,0.5-0.5S162.9,319.8,162.9,320z"/>
					<path class="st3" d="M186.1,321.5c0,0.3-0.2,0.5-0.5,0.5s-0.5-0.2-0.5-0.5s0.2-0.5,0.5-0.5S186.1,321.2,186.1,321.5z"/>
					<path class="st3" d="M140.6,312.7c0,0.3-0.2,0.5-0.5,0.5s-0.5-0.2-0.5-0.5s0.2-0.5,0.5-0.5S140.6,312.4,140.6,312.7z"/>
					<path class="st3" d="M165.6,313.4c0,0.3-0.2,0.5-0.5,0.5s-0.5-0.2-0.5-0.5s0.2-0.5,0.5-0.5S165.6,313.1,165.6,313.4z"/>
					<path class="st3" d="M226.6,308.9c0,0.3-0.2,0.5-0.5,0.5s-0.5-0.2-0.5-0.5s0.2-0.5,0.5-0.5S226.6,308.6,226.6,308.9z"/>
					<path class="st3" d="M186.7,297.5c0,0.3-0.2,0.5-0.5,0.5s-0.5-0.2-0.5-0.5s0.2-0.5,0.5-0.5S186.7,297.3,186.7,297.5z"/>
					<path class="st3" d="M229.1,291c0,0.3-0.2,0.5-0.5,0.5s-0.5-0.2-0.5-0.5s0.2-0.5,0.5-0.5S229.1,290.7,229.1,291z"/>
					<path class="st3" d="M175.9,277.4c0,0.3-0.2,0.5-0.5,0.5s-0.5-0.2-0.5-0.5s0.2-0.5,0.5-0.5S175.9,277.1,175.9,277.4z"/>
					<path class="st3" d="M116.1,266.4c0,0.3-0.2,0.5-0.5,0.5s-0.5-0.2-0.5-0.5s0.2-0.5,0.5-0.5S116.1,266.2,116.1,266.4z"/>
					<path class="st3" d="M160.4,255.1c0,0.3-0.2,0.5-0.5,0.5s-0.5-0.2-0.5-0.5s0.2-0.5,0.5-0.5S160.4,254.8,160.4,255.1z"/>
					<path class="st3" d="M135.3,250.3c0,0.3-0.2,0.5-0.5,0.5s-0.5-0.2-0.5-0.5s0.2-0.5,0.5-0.5S135.3,250,135.3,250.3z"/>
					<path class="st3" d="M234.9,259.8c0,0.3-0.2,0.5-0.5,0.5s-0.5-0.2-0.5-0.5s0.2-0.5,0.5-0.5S234.9,259.5,234.9,259.8z"/>
					<path class="st3" d="M185.9,237.6c0,0.3-0.2,0.5-0.5,0.5s-0.5-0.2-0.5-0.5s0.2-0.5,0.5-0.5S185.9,237.3,185.9,237.6z"/>
					<path class="st3" d="M212.1,239.5c0,0.3-0.2,0.5-0.5,0.5s-0.5-0.2-0.5-0.5s0.2-0.5,0.5-0.5S212.1,239.2,212.1,239.5z"/>
					<path class="st3" d="M79.6,203.3c0,0.3-0.2,0.5-0.5,0.5s-0.5-0.2-0.5-0.5s0.2-0.5,0.5-0.5S79.6,203,79.6,203.3z"/>
					<path class="st3" d="M126.5,202.8c0,0.3-0.2,0.5-0.5,0.5s-0.5-0.2-0.5-0.5s0.2-0.5,0.5-0.5S126.5,202.5,126.5,202.8z"/>
					<path class="st3" d="M115.4,172.3c0,0.3-0.2,0.5-0.5,0.5s-0.5-0.2-0.5-0.5s0.2-0.5,0.5-0.5S115.4,172,115.4,172.3z"/>
					<path class="st3" d="M232.3,172.6c0,0.3-0.2,0.5-0.5,0.5s-0.5-0.2-0.5-0.5s0.2-0.5,0.5-0.5S232.3,172.3,232.3,172.6z"/>
					<path class="st3" d="M153.1,101.5c0,0.3-0.2,0.5-0.5,0.5s-0.5-0.2-0.5-0.5s0.2-0.5,0.5-0.5S153.1,101.2,153.1,101.5z"/>
				</g>
			</g>
		</g>
	</g>
</g>
</svg>
