<svg class="main-svg" xmlns="http://www.w3.org/2000/svg" xmlns:xlink="http://www.w3.org/1999/xlink" width="600" height="600" style="" viewBox="0 0 600 600"><rect x="0" y="0" width="600" height="600" style="fill: rgb(255, 255, 255); fill-opacity: 1;"/><defs id="defs-c2b8eb"><g class="clips"><clipPath id="clipc2b8ebgeo"><rect x="130.43264795580444" y="4.547473508864641e-13" width="339.1347040883911" height="600"/></clipPath></g><g class="gradients"/><g class="patterns"/></defs><g class="bglayer"/><g class="layer-below"><g class="imagelayer"/><g class="shapelayer"/></g><g class="cartesianlayer"/><g class="polarlayer"/><g class="smithlayer"/><g class="ternarylayer"/><g class="geolayer"><g class="geo geo" clip-path="url(#clipc2b8ebgeo)"><g class="layer bg"><rect x="130.43264795580444" y="4.547473508864641e-13" width="339.1347040883911" height="600" style="pointer-events: all; fill: rgb(255, 255, 255); fill-opacity: 1;"/></g><g class="layer land"><path d="M130.43264795580444,4.547473508864641e-13L469.56735204419556,4.547473508864641e-13L469.56735204419556,600.0000000000005L130.43264795580444,600.0000000000005Z" style="stroke: none; fill: rgb(255, 255, 255); fill-opacity: 1;"/></g><g class="layer subunits"><path d="M400.25424793162875,551.8701548811023L391.29774129029306,550.8965642826934L379.3610651693644,549.5503307587519L367.80344082147883,548.1937564106779L355.8794615647047,546.7393492459014L344.3346122593905,545.2780385170454L332.4243101474321,543.7155772795063L320.52133021596416,542.0982800687239L308.9975391858568,540.4792634464793L297.10971244827476,538.7541092579631L288.1991253501461,537.4243245249068L288.7315035406226,536.4118009035938L288.52184021851,535.2871748906555L286.9919033266281,532.8691596578988L286.20567453811634,530.5626347782318L285.6282924935413,529.3809363313671L281.4633817887894,526.9187779953659L280.8341839957017,526.0920646153095L280.99937570893934,525.0231199657128L280.00167661007896,524.1389839734029L278.91272791493765,521.4152457815067L277.0899272093238,518.5753283727927L276.57649096419755,517.034212074604L276.7441196707725,515.9647989729397L277.55889687350754,513.1701029791566L277.7264345582268,512.1002641602295L277.04733606519875,511.62842485102055L274.84269079133804,511.281549924754L273.8533150271827,510.3942647262861L273.5989757632244,509.62295808470753L273.7119282977622,508.9097422328782L275.46168215970766,507.3584375131013L277.1236571754021,503.96383951319604L277.57290536028364,501.10853688798215L277.3764304202049,495.22293280366785L277.48913429680823,494.508625626318L278.44417531040455,493.1948688754974L278.6692281535556,491.7658321048457L278.5862437714111,489.92184128165036L277.5812842854761,486.8328112532049L277.29647594719813,476.890491658864L273.12894017062234,468.14989761587003L271.9157508686846,466.48505381976474L270.8909367872888,465.9517449394375L269.8082988446255,465.7758915918671L267.7702195528373,466.91300639750807L267.40919348967583,466.8539914053367L267.1067385408411,466.43715095205744L266.25878188722237,464.8285358326207L265.41217340314665,463.219439616249L265.1106220503391,462.8022490872704L265.5888549223996,462.145864771941L265.70665380506654,461.43008013496546L265.523286576573,460.2970143684979L265.2812401454174,459.5217888048978L265.0394173573505,458.74649063339984L264.62044426247195,459.04504357090354L264.2605506006088,458.985575339967L263.90066550122737,458.92605531322624L263.6000659178646,458.50854818609423L262.69895048438195,457.25573623569335L257.967788560032,452.4171827907817L258.088268496885,451.7011942985532L259.8239120575979,450.1519234418174L259.6456070790373,449.01739124057667L259.10935401821695,447.822523894969L255.60164436493653,442.4399453768997L251.85389623343508,440.6941701597857L250.31453486328206,438.95441576466555L250.08105687371267,438.1764647672585L250.21877385605438,435.24870883813855L249.92419370456633,434.82883827877504L249.62972803326875,434.4089199028008L247.74080724469997,432.6051276540875L246.85983451543348,431.3442590571776L245.26845161160452,429.9586087710768L244.74543961986296,428.7589577982312L244.43452343225573,424.2704640351276L243.03968706907636,421.8068947600618L242.64747942125007,419.88872256022023L241.48485547916152,418.20339788354113L240.7416120268308,416.2215348187965L239.22915225669738,414.47176618760886L238.2978288865118,409.49170304122526L237.4330186041973,408.2252113664117L236.5045962631982,407.31718390560536L235.31767973651682,407.8441668954015L234.4828462163772,408.43432627319817L233.64764720725464,409.02414780246045L233.38770095998962,410.4589329346145L233.0348002054477,410.3949701449337L230.8522482524774,410.3687200731224L230.34282309524139,409.1642458809097L228.70736742025684,402.19152698407333L227.9165602498171,400.56222777167704L224.70027469914737,394.3992882238058L223.40171438978894,389.69937462589996L222.76908972708327,389.2094534239641L221.93482712011138,389.79650979660255L216.68691924563592,388.80705913004977L212.97100884808714,385.4956111400761L212.12971125591332,384.21815653479734L211.42753136363683,382.2224410609615L214.55659322153838,379.1000277172002L214.76273256698602,378.0224595453874L214.13510021418165,377.52992220840406L211.34847921778487,375.1317218270324L208.63715677121587,372.37077031264425L207.80255153856183,372.9540082816179L207.10540122276757,374.6818771414837L206.68767792072225,374.973177079562L202.9282617511442,375.72849046091187L202.23246762486332,375.59174799731545L201.74877039750976,374.3782382264071L202.03155746804822,372.9425935373074L202.7323643288314,371.2160542201059L201.9739496422584,369.5746446705052L201.9814045593153,367.7106813037417L200.74596519469566,364.85378147833626L201.865203218469,362.8353524626832L202.1496238028958,361.3979618362937L201.74284051759116,359.8234270034436L200.71766286540935,357.75193933321225L200.45642913274241,355.4575974851541L199.78019294403788,353.4535763590029L199.23451575899946,352.5967478583102L196.47821149489084,352.0443388657154L195.93398828662282,351.18670149973013L195.7527248026566,348.5309338450211L195.91672989554223,345.94380115212925L194.76071175598696,344.58692228005066L193.80343831906697,344.01848722000113L194.3142283730333,341.49995876539697L193.9206564525149,339.92129325599853L191.35132362659164,336.77372378463133L189.78765126644782,335.70340679399897L188.88151715802678,336.6424411444618L187.94734885887414,339.4500643348183L187.67869436418744,339.01988333923873L182.72209567674855,335.36829196577764L181.65416339429896,333.64448086479024L180.24279858582037,328.46757552928284L179.63622499938373,327.9645135543574L175.62081884307554,326.74122183479176L174.18102795027272,326.81145791975723L173.57586678019857,326.306831139535L172.51984416896727,324.57781471566796L170.90784044316626,320.4711971497504L170.4598028385779,319.24600970186657L169.44051656506474,319.0268074444598L169.90524890097367,316.8680783999289L169.61429666528647,314.92252478250384L169.6918875522125,314.56261076873534L170.37011622197434,314.70872233589535L174.1011236686399,315.5088459065414L174.5941111706071,314.8610997532387L173.17702529296997,311.5448902937769L171.5612855552077,310.8211254745179L171.03934860793828,309.95506755230144L171.0891708418855,308.081155831424L169.97019343317413,306.7084883738853L169.76223863049654,304.4005888269321L173.27648863848248,288.1674047194779L176.79879876113063,271.8969889623286L180.40797609832003,255.2253122011689L183.94736221411375,238.87601823674368L187.49558695957523,222.48589647056042L191.13207594818368,205.68806048203805L194.69900008057095,189.21156165390084L198.27559123471337,172.69040847744827L201.86213558766372,156.12327903057167L205.53897306964706,139.13906343902636L209.14654614288992,122.47479716714315L212.76497753949883,105.76037363214618L216.39458103532723,88.99434342628501L220.11672434876465,71.80084906929505L223.76991074656053,54.92588364580388L227.4352652965544,37.99471053804746L241.21281990120985,40.92964246414522L255.30963862012715,43.83410194959288L269.125241115712,46.58436811472711L282.95874854029455,49.24311004073479L296.8095545800314,51.81021119664683L310.9787003278668,54.338351159785816L324.8626245412445,56.71983908381162L338.76201074950836,59.00935853745614L352.97889359779424,61.25355660686273L366.90767839254124,63.35683748128895L380.85008237417077,65.36785898990956L394.8054944559729,67.28653299093094L409.0770840847049,69.15144917287626L423.0569262292563,70.88316794580624L437.0479265748239,72.52229747864658L451.3539658438938,74.10135521300708L449.7160492072197,89.41544103249726L448.0422144141735,105.06535208072364L446.4139896962189,120.28882103260185L444.7498402958886,135.84817622961646L443.1308273317327,150.98551772844712L441.47588194551065,166.45881783646473L439.86562122275643,181.5143282011968L438.2595190208932,196.53095749934528L436.6174699501852,211.88368048022903L435.0194687203351,226.82456784020314L433.38550865464873,242.10166077110534L431.79519396651995,256.9706810061366L430.1689063781728,272.1760383103351L428.5858796328,286.97691821495255L426.9668636323463,302.1142881023611L425.3907409372769,316.85061696910407L423.7786101690705,331.92361176246914L422.2090213056796,346.5988510372181L420.6034029328832,361.6109566620098L419.03999040639104,376.2284488260698L417.4794997271529,390.81862249381766L415.882942340248,405.74601030547683L414.32811578159243,420.2832259491397L412.73719396974616,435.15792262978766L411.1877020971119,449.6452603750754L409.6020833740463,464.4703745831612L408.0576066956707,478.9108215932565L406.47696841769607,493.68936996164484L404.93719671640986,508.0858266847422L403.3612254223117,522.8207399925891L401.82585713457456,537.1760259677503ZM130.43264795580444,14.574622424974647L143.13022300172418,17.93835119650703L153.5114231905767,20.604668862479684L164.20310102023075,23.29257613928621L174.61100432015786,25.852676949070883L185.32958965953156,28.43119370573322L195.7631093264951,30.884810345712594L206.20885605487996,33.285839821443005L216.96552960682158,35.700543620834196L227.4352652965544,37.99471053804746L227.4352652965544,37.99471053804746L223.76991074656053,54.92588364580388L220.11672434876465,71.80084906929505L216.39458103532723,88.99434342628501L212.76497753949883,105.76037363214618L209.14654614288992,122.47479716714315L205.53897306964706,139.13906343902636L201.86213558766372,156.12327903057167L198.27559123471337,172.69040847744827L194.69900008057095,189.21156165390084L191.13207594818368,205.68806048203805L187.49558695957523,222.48589647056042L183.94736221411375,238.87601823674368L180.40797609832003,255.2253122011689L176.79879876113063,271.8969889623286L173.27648863848248,288.1674047194779L169.76223863049654,304.4005888269321L169.97019343317413,306.7084883738853L171.0891708418855,308.081155831424L171.03934860793828,309.95506755230144L171.5612855552077,310.8211254745179L173.17702529296997,311.5448902937769L174.5941111706071,314.8610997532387L174.1011236686399,315.5088459065414L170.37011622197434,314.70872233589535L169.6918875522125,314.56261076873534L169.61429666528647,314.92252478250384L169.90524890097367,316.8680783999289L169.44051656506474,319.0268074444598L170.4598028385779,319.24600970186657L170.90784044316626,320.4711971497504L172.51984416896727,324.57781471566796L173.57586678019857,326.306831139535L174.18102795027272,326.81145791975723L175.62081884307554,326.74122183479176L179.63622499938373,327.9645135543574L180.24279858582037,328.46757552928284L181.65416339429896,333.64448086479024L182.72209567674855,335.36829196577764L187.67869436418744,339.01988333923873L187.94734885887414,339.4500643348183L188.88151715802678,336.6424411444618L189.78765126644782,335.70340679399897L191.35132362659164,336.77372378463133L193.9206564525149,339.92129325599853L194.3142283730333,341.49995876539697L193.80343831906697,344.01848722000113L194.76071175598696,344.58692228005066L195.91672989554223,345.94380115212925L195.7527248026566,348.5309338450211L195.93398828662282,351.18670149973013L196.47821149489084,352.0443388657154L199.23451575899946,352.5967478583102L199.78019294403788,353.4535763590029L200.45642913274241,355.4575974851541L200.71766286540935,357.75193933321225L201.74284051759116,359.8234270034436L202.1496238028958,361.3979618362937L201.865203218469,362.8353524626832L200.74596519469566,364.85378147833626L201.9814045593153,367.7106813037417L201.9739496422584,369.5746446705052L202.7323643288314,371.2160542201059L202.03155746804822,372.9425935373074L201.74877039750976,374.3782382264071L202.23246762486332,375.59174799731545L202.9282617511442,375.72849046091187L206.68767792072225,374.973177079562L207.10540122276757,374.6818771414837L207.80255153856183,372.9540082816179L208.63715677121587,372.37077031264425L211.34847921778487,375.1317218270324L214.13510021418165,377.52992220840406L214.76273256698602,378.0224595453874L214.55659322153838,379.1000277172002L211.42753136363683,382.2224410609615L212.12971125591332,384.21815653479734L212.97100884808714,385.4956111400761L216.68691924563592,388.80705913004977L221.93482712011138,389.79650979660255L222.76908972708327,389.2094534239641L223.40171438978894,389.69937462589996L224.70027469914737,394.3992882238058L227.9165602498171,400.56222777167704L228.70736742025684,402.19152698407333L230.34282309524139,409.1642458809097L230.8522482524774,410.3687200731224L233.0348002054477,410.3949701449337L233.38770095998962,410.4589329346145L233.64764720725464,409.02414780246045L234.4828462163772,408.43432627319817L235.31767973651682,407.8441668954015L236.5045962631982,407.31718390560536L237.4330186041973,408.2252113664117L238.2978288865118,409.49170304122526L239.22915225669738,414.47176618760886L240.7416120268308,416.2215348187965L241.48485547916152,418.20339788354113L242.64747942125007,419.88872256022023L243.03968706907636,421.8068947600618L244.43452343225573,424.2704640351276L244.74543961986296,428.7589577982312L245.26845161160452,429.9586087710768L246.85983451543348,431.3442590571776L247.74080724469997,432.6051276540875L249.62972803326875,434.4089199028008L249.92419370456633,434.82883827877504L250.21877385605438,435.24870883813855L250.08105687371267,438.1764647672585L250.31453486328206,438.95441576466555L251.85389623343508,440.6941701597857L255.60164436493653,442.4399453768997L259.10935401821695,447.822523894969L259.6456070790373,449.01739124057667L259.8239120575979,450.1519234418174L258.088268496885,451.7011942985532L257.967788560032,452.4171827907817L262.69895048438195,457.25573623569335L263.6000659178646,458.50854818609423L263.90066550122737,458.92605531322624L264.2605506006088,458.985575339967L264.62044426247195,459.04504357090354L265.0394173573505,458.74649063339984L265.2812401454174,459.5217888048978L265.523286576573,460.2970143684979L265.70665380506654,461.43008013496546L265.5888549223996,462.145864771941L265.1106220503391,462.8022490872704L265.41217340314665,463.219439616249L266.25878188722237,464.8285358326207L267.1067385408411,466.43715095205744L267.40919348967583,466.8539914053367L267.7702195528373,466.91300639750807L269.8082988446255,465.7758915918671L270.8909367872888,465.9517449394375L271.9157508686846,466.48505381976474L273.12894017062234,468.14989761587003L277.29647594719813,476.890491658864L277.5812842854761,486.8328112532049L278.5862437714111,489.92184128165036L278.6692281535556,491.7658321048457L278.44417531040455,493.1948688754974L277.48913429680823,494.508625626318L277.3764304202049,495.22293280366785L277.57290536028364,501.10853688798215L277.1236571754021,503.96383951319604L275.46168215970766,507.3584375131013L273.7119282977622,508.9097422328782L273.5989757632244,509.62295808470753L273.8533150271827,510.3942647262861L274.84269079133804,511.281549924754L277.04733606519875,511.62842485102055L277.7264345582268,512.1002641602295L277.55889687350754,513.1701029791566L276.7441196707725,515.9647989729397L276.57649096419755,517.034212074604L277.0899272093238,518.5753283727927L278.91272791493765,521.4152457815067L280.00167661007896,524.1389839734029L280.99937570893934,525.0231199657128L280.8341839957017,526.0920646153095L281.4633817887894,526.9187779953659L285.6282924935413,529.3809363313671L286.20567453811634,530.5626347782318L286.9919033266281,532.8691596578988L288.52184021851,535.2871748906555L288.7315035406226,536.4118009035938L288.1991253501461,537.4243245249068L285.6010746151078,537.0306738069821L273.7293783799424,535.1978044671519L261.86624927234703,533.3102798200416L250.38225012847994,531.4296580631881L238.53672270928882,529.4346488706951L233.72712337111574,528.6085968820062L227.07024708151903,527.4499798286506L215.2432951818011,525.3476501022083L206.37950381308718,523.7351698879047L203.7952857390202,523.2590969363328L191.9878816627321,521.0496195102887L180.19077848956454,518.7857868666147L168.77239399976838,516.540910439755L156.9963017583467,514.1702073713695L145.5987407582552,511.8218935554828L133.84462757132087,509.34451495993835L130.43264795580444,508.60921141606326L130.43264795580444,14.574622424974647ZM469.56735204419556,75.96297303888664L462.62348343963447,75.27634513184921L451.3539658438938,74.10135521300708L451.3539658438938,74.10135521300708L437.0479265748239,72.52229747864658L423.0569262292563,70.88316794580624L409.0770840847049,69.15144917287626L394.8054944559729,67.28653299093094L380.85008237417077,65.36785898990956L366.90767839254124,63.35683748128895L352.97889359779424,61.25355660686273L338.76201074950836,59.00935853745614L324.8626245412445,56.71983908381162L310.9787003278668,54.338351159785816L296.8095545800314,51.81021119664683L282.95874854029455,49.24311004073479L269.125241115712,46.58436811472711L255.30963862012715,43.83410194959288L241.21281990120985,40.92964246414522L227.4352652965544,37.99471053804746L216.96552960682158,35.700543620834196L206.20885605487996,33.285839821443005L195.7631093264951,30.884810345712594L185.32958965953156,28.43119370573322L174.61100432015786,25.852676949070883L164.20310102023075,23.29257613928621L153.5114231905767,20.604668862479684L143.13022300172418,17.93835119650703L142.73138545100858,17.037910729276064L142.4301680033069,15.763976793965867L139.7657151825698,15.068997855138605L139.56738168378922,14.61835540230868L139.66505029582436,14.245117495424893L140.4491234483354,12.455836443377848L140.74212429198053,11.335483447107435L139.55661517675742,6.233323571364508L138.87263476771034,1.6561332749752182L138.97326529458883,0.08257097692239768L138.98292281522112,4.547473508864641e-13L469.56735204419556,4.547473508864641e-13ZM469.56735204419556,558.3428109563428L461.9141497517645,557.7253933930278L450.31923031846816,556.7370524275461L438.3550300656675,555.6625786829541L426.7695484625475,554.5691480484575L414.8155821790444,553.3862399329159L402.867190518443,552.1482907248328L400.25424793162875,551.8701548811023L400.25424793162875,551.8701548811023L401.82585713457456,537.1760259677503L403.3612254223117,522.8207399925891L404.93719671640986,508.0858266847422L406.47696841769607,493.68936996164484L408.0576066956707,478.9108215932565L409.6020833740463,464.4703745831612L411.1877020971119,449.6452603750754L412.73719396974616,435.15792262978766L414.32811578159243,420.2832259491397L415.882942340248,405.74601030547683L417.4794997271529,390.81862249381766L419.03999040639104,376.2284488260698L420.6034029328832,361.6109566620098L422.2090213056796,346.5988510372181L423.7786101690705,331.92361176246914L425.3907409372769,316.85061696910407L426.9668636323463,302.1142881023611L428.5858796328,286.97691821495255L430.1689063781728,272.1760383103351L431.79519396651995,256.9706810061366L433.38550865464873,242.10166077110534L435.0194687203351,226.82456784020314L436.6174699501852,211.88368048022903L438.2595190208932,196.53095749934528L439.86562122275643,181.5143282011968L441.47588194551065,166.45881783646473L443.1308273317327,150.98551772844712L444.7498402958886,135.84817622961646L446.4139896962189,120.28882103260185L448.0422144141735,105.06535208072364L449.7160492072197,89.41544103249726L451.3539658438938,74.10135521300708L462.62348343963447,75.27634513184921L469.56735204419556,75.96297303888664L469.56735204419556,558.3428109563428ZM138.98292281522112,4.547473508864641e-13L138.97326529458883,0.08257097692239768L138.87263476771034,1.6561332749752182L139.55661517675742,6.233323571364508L140.74212429198053,11.335483447107435L140.4491234483354,12.455836443377848L139.66505029582436,14.245117495424893L139.56738168378922,14.61835540230868L139.7657151825698,15.068997855138605L142.4301680033069,15.763976793965867L142.73138545100858,17.037910729276064L143.13022300172418,17.93835119650703L143.13022300172418,17.93835119650703L130.43264795580444,14.574622424974647L130.43264795580444,4.547473508864641e-13ZM192.76247245680403,600.0000000000005L193.3303986707142,596.90593910999L194.5586822943933,590.2142523577618L195.7876066775355,583.5190747492461L197.01718391447673,576.820340394524L198.18265979709008,570.4708300913867L199.41354334198456,563.7649789735192L200.6451157790541,557.0553747724457L201.87738947219782,550.3419501296662L203.11037685639837,543.624637299421L203.972991917743,536.8352240443451L205.20841218052135,530.1101077548005L206.37950381308718,523.7351698879047L206.37950381308718,523.7351698879047L215.2432951818011,525.3476501022083L227.07024708151903,527.4499798286506L233.72712337111574,528.6085968820062L231.95016843576042,538.8970256815219L230.17484768480682,549.1759926823561L228.4011189073559,559.4457422822834L226.628940267588,569.7065167073974L228.90784897711922,574.4681766912904L230.3677542905831,577.265761587068L231.39405694634632,580.3514545192093L233.17949366707063,583.5642280712163L233.3779222206437,584.6886799331864L233.59672422949387,587.9975984285925L232.85992366480946,590.0539312746687L233.57929480352772,592.7191023115429L233.0213513090426,593.7150105467508L232.20310781949394,593.9401661695256L231.76404876267628,594.2292576588129L232.0837082881916,594.6466269351822L232.0240109955489,594.9998426857628L234.70431458087768,597.6306654393607L236.5292300202728,600.0000000000005L192.76247245680403,600.0000000000005ZM236.5292300202728,600.0000000000005L234.70431458087768,597.6306654393607L232.0240109955489,594.9998426857628L232.0837082881916,594.6466269351822L231.76404876267628,594.2292576588129L232.20310781949394,593.9401661695256L233.0213513090426,593.7150105467508L233.57929480352772,592.7191023115429L232.85992366480946,590.0539312746687L233.59672422949387,587.9975984285925L233.3779222206437,584.6886799331864L233.17949366707063,583.5642280712163L231.39405694634632,580.3514545192093L230.3677542905831,577.265761587068L228.90784897711922,574.4681766912904L226.628940267588,569.7065167073974L228.4011189073559,559.4457422822834L230.17484768480682,549.1759926823561L231.95016843576042,538.8970256815219L233.72712337111574,528.6085968820062L238.53672270928882,529.4346488706951L250.38225012847994,531.4296580631881L261.86624927234703,533.3102798200416L273.7293783799424,535.1978044671519L285.6010746151078,537.0306738069821L288.1991253501461,537.4243245249068L288.1991253501461,537.4243245249068L297.10971244827476,538.7541092579631L308.9975391858568,540.4792634464793L320.52133021596416,542.0982800687239L332.4243101474321,543.7155772795063L344.3346122593905,545.2780385170454L355.8794615647047,546.7393492459014L367.80344082147883,548.1937564106779L379.3610651693644,549.5503307587519L391.29774129029306,550.8965642826934L400.25424793162875,551.8701548811023L402.867190518443,552.1482907248328L414.8155821790444,553.3862399329159L426.7695484625475,554.5691480484575L438.3550300656675,555.6625786829541L450.31923031846816,556.7370524275461L461.9141497517645,557.7253933930278L469.56735204419556,558.3428109563428L469.56735204419556,600.0000000000005ZM130.43264795580444,508.60921141606326L133.84462757132087,509.34451495993835L145.5987407582552,511.8218935554828L156.9963017583467,514.1702073713695L168.77239399976838,516.540910439755L180.19077848956454,518.7857868666147L191.9878816627321,521.0496195102887L203.7952857390202,523.2590969363328L206.37950381308718,523.7351698879047L205.20841218052135,530.1101077548005L203.972991917743,536.8352240443451L203.11037685639837,543.624637299421L201.87738947219782,550.3419501296662L200.6451157790541,557.0553747724457L199.41354334198456,563.7649789735192L198.18265979709008,570.4708300913867L197.01718391447673,576.820340394524L195.7876066775355,583.5190747492461L194.5586822943933,590.2142523577618L193.3303986707142,596.90593910999L192.76247245680403,600.0000000000005L130.43264795580444,600.0000000000005Z" style="fill: none; stroke-miterlimit: 2; stroke: rgb(0, 0, 0); stroke-opacity: 1; stroke-width: 1px;"/></g><g class="layer countries"><path d="M130.43264795580444,508.60921141606326L133.84462757132087,509.34451495993835L145.5987407582552,511.8218935554828L156.9963017583467,514.1702073713695L168.77239399976838,516.540910439755L180.19077848956454,518.7857868666147L191.9878816627321,521.0496195102887L203.7952857390202,523.2590969363328L215.2432951818011,525.3476501022083L227.07024708151903,527.4499798286506L238.53672270928882,529.4346488706951L250.38225012847994,531.4296580631881L261.86624927234703,533.3102798200416L273.7293783799424,535.1978044671519L285.6010746151078,537.0306738069821L297.10971244827476,538.7541092579631L308.9975391858568,540.4792634464793L320.52133021596416,542.0982800687239L332.4243101474321,543.7155772795063L344.3346122593905,545.2780385170454L355.8794615647047,546.7393492459014L367.80344082147883,548.1937564106779L379.3610651693644,549.5503307587519L391.29774129029306,550.8965642826934L402.867190518443,552.1482907248328L414.8155821790444,553.3862399329159L426.7695484625475,554.5691480484575L438.3550300656675,555.6625786829541L450.31923031846816,556.7370524275461L461.9141497517645,557.7253933930278L469.56735204419556,558.3428109563428L469.56735204419556,600.0000000000005L130.43264795580444,600.0000000000005ZM469.56735204419556,558.3428109563428L461.9141497517645,557.7253933930278L450.31923031846816,556.7370524275461L438.3550300656675,555.6625786829541L426.7695484625475,554.5691480484575L414.8155821790444,553.3862399329159L402.867190518443,552.1482907248328L391.29774129029306,550.8965642826934L379.3610651693644,549.5503307587519L367.80344082147883,548.1937564106779L355.8794615647047,546.7393492459014L344.3346122593905,545.2780385170454L332.4243101474321,543.7155772795063L320.52133021596416,542.0982800687239L308.9975391858568,540.4792634464793L297.10971244827476,538.7541092579631L285.6010746151078,537.0306738069821L273.7293783799424,535.1978044671519L261.86624927234703,533.3102798200416L250.38225012847994,531.4296580631881L238.53672270928882,529.4346488706951L227.07024708151903,527.4499798286506L215.2432951818011,525.3476501022083L203.7952857390202,523.2590969363328L191.9878816627321,521.0496195102887L180.19077848956454,518.7857868666147L168.77239399976838,516.540910439755L156.9963017583467,514.1702073713695L145.5987407582552,511.8218935554828L133.84462757132087,509.34451495993835L130.43264795580444,508.60921141606326L130.43264795580444,4.547473508864641e-13L469.56735204419556,4.547473508864641e-13Z" style="fill: none; stroke-miterlimit: 2; stroke: rgb(255, 255, 255); stroke-opacity: 1; stroke-width: 1px;"/></g><g class="layer lataxis"><path d="M130.43264795580444,464.7007562349222L134.839679003838,465.71647091694376L201.84339727034046,479.2897933573281L269.1850029948385,491.07289490376934L336.816673434455,501.05740776893117L404.69037985641825,509.23624143594316L469.56735204419556,515.3051273574545M130.43264795580444,243.7296112697294L180.4033551189117,255.24665764025895L241.78265254631856,267.6806093178775L303.47147450934614,278.4746146827697L365.4260125980317,287.6210083557444L427.6022697037053,295.11329501154023L469.56735204419556,299.0388989480819M130.43264795580444,14.411882335794434L172.19211913771204,25.215941891192415L227.44486417175762,37.95037097539671L283.01731574346326,49.20799702213708L338.87000899252564,58.98082541129588L394.963280044591,67.26191595405317L451.2572941786159,74.04538782146847L469.56735204419556,75.75819359299616" style="fill: none; stroke: rgb(238, 238, 238); stroke-opacity: 1; stroke-width: 0.5px;"/></g><g class="layer lonaxis"><path d="M130.43264795580444,486.0736299714855L134.839679003838,465.71647091694376L157.47220134195743,361.171290267911L180.4033551189117,255.24665764025895L203.70154714642064,147.62658516564306L227.44486417175762,37.95037097539671L235.66057161526018,4.547473508864641e-13M251.6179460922267,600.0000000000005L252.3329881437288,595.5662772014698L269.1850029948385,491.07289490376934L286.21587931148133,385.47045593472103L303.47147450934614,278.4746146827697L321.00326442184723,169.76618771569338L338.87000899252564,58.98082541129588L348.3820539077732,4.618527782440651e-13M394.978346311804,600.0000000000005L404.69037985641825,509.23624143594316L416.0712407304974,402.8764658152263L427.6022697037053,295.11329501154023L439.3178654345474,185.62525654220008L451.2572941786159,74.04538782146847L459.18040469897335,4.547473508864641e-13" style="fill: none; stroke: rgb(238, 238, 238); stroke-opacity: 1; stroke-width: 0.5px;"/></g><g class="layer backplot"><g class="choroplethlayer"/></g><g class="layer frontplot"><g class="scatterlayer"><g class="trace scattergeo" style="opacity: 1;"><path class="point" d="M3,0A3,3 0 1,1 0,-3A3,3 0 0,1 3,0Z" transform="translate(326.7135026195691,513.6709537850834)" style="opacity: 1; stroke-width: 0px; fill: rgb(99, 110, 250); fill-opacity: 1;"/><path class="point" d="M3,0A3,3 0 1,1 0,-3A3,3 0 0,1 3,0Z" transform="translate(389.3479737965892,504.0535076385563)" style="opacity: 1; stroke-width: 0px; fill: rgb(99, 110, 250); fill-opacity: 1;"/><path class="point" d="M3,0A3,3 0 1,1 0,-3A3,3 0 0,1 3,0Z" transform="translate(356.6303487763551,478.58472080852107)" style="opacity: 1; stroke-width: 0px; fill: rgb(99, 110, 250); fill-opacity: 1;"/><path class="point" d="M3,0A3,3 0 1,1 0,-3A3,3 0 0,1 3,0Z" transform="translate(303.4172011379201,471.2341970115758)" style="opacity: 1; stroke-width: 0px; fill: rgb(99, 110, 250); fill-opacity: 1;"/><path class="point" d="M3,0A3,3 0 1,1 0,-3A3,3 0 0,1 3,0Z" transform="translate(289.2667371690813,467.0142301297442)" style="opacity: 1; stroke-width: 0px; fill: rgb(99, 110, 250); fill-opacity: 1;"/><path class="point" d="M3,0A3,3 0 1,1 0,-3A3,3 0 0,1 3,0Z" transform="translate(370.10649351546937,462.5877445375427)" style="opacity: 1; stroke-width: 0px; fill: rgb(99, 110, 250); fill-opacity: 1;"/><path class="point" d="M3,0A3,3 0 1,1 0,-3A3,3 0 0,1 3,0Z" transform="translate(302.1941806839678,451.1600714334595)" style="opacity: 1; stroke-width: 0px; fill: rgb(99, 110, 250); fill-opacity: 1;"/><path class="point" d="M3,0A3,3 0 1,1 0,-3A3,3 0 0,1 3,0Z" transform="translate(267.39727803210866,443.7873076267074)" style="opacity: 1; stroke-width: 0px; fill: rgb(99, 110, 250); fill-opacity: 1;"/><path class="point" d="M3,0A3,3 0 1,1 0,-3A3,3 0 0,1 3,0Z" transform="translate(310.37357028998343,409.8137297946628)" style="opacity: 1; stroke-width: 0px; fill: rgb(99, 110, 250); fill-opacity: 1;"/><path class="point" d="M3,0A3,3 0 1,1 0,-3A3,3 0 0,1 3,0Z" transform="translate(370.06343201331134,412.9853429177065)" style="opacity: 1; stroke-width: 0px; fill: rgb(99, 110, 250); fill-opacity: 1;"/><path class="point" d="M3,0A3,3 0 1,1 0,-3A3,3 0 0,1 3,0Z" transform="translate(314.6688572747831,401.5619426188532)" style="opacity: 1; stroke-width: 0px; fill: rgb(99, 110, 250); fill-opacity: 1;"/><path class="point" d="M3,0A3,3 0 1,1 0,-3A3,3 0 0,1 3,0Z" transform="translate(287.4090981200703,391.46812905717024)" style="opacity: 1; stroke-width: 0px; fill: rgb(99, 110, 250); fill-opacity: 1;"/><path class="point" d="M3,0A3,3 0 1,1 0,-3A3,3 0 0,1 3,0Z" transform="translate(318.76247354636587,391.94049677666044)" style="opacity: 1; stroke-width: 0px; fill: rgb(99, 110, 250); fill-opacity: 1;"/><path class="point" d="M3,0A3,3 0 1,1 0,-3A3,3 0 0,1 3,0Z" transform="translate(395.4325456443638,385.8754472802889)" style="opacity: 1; stroke-width: 0px; fill: rgb(99, 110, 250); fill-opacity: 1;"/><path class="point" d="M3,0A3,3 0 1,1 0,-3A3,3 0 0,1 3,0Z" transform="translate(345.359191974411,371.78574550786516)" style="opacity: 1; stroke-width: 0px; fill: rgb(99, 110, 250); fill-opacity: 1;"/><path class="point" d="M3,0A3,3 0 1,1 0,-3A3,3 0 0,1 3,0Z" transform="translate(398.20632601830465,363.2451625024478)" style="opacity: 1; stroke-width: 0px; fill: rgb(99, 110, 250); fill-opacity: 1;"/><path class="point" d="M3,0A3,3 0 1,1 0,-3A3,3 0 0,1 3,0Z" transform="translate(320.81144673810934,345.7003922659919)" style="opacity: 1; stroke-width: 0px; fill: rgb(99, 110, 250); fill-opacity: 1;"/><path class="point" d="M3,0A3,3 0 1,1 0,-3A3,3 0 0,1 3,0Z" transform="translate(257.27430323606563,333.1370266912809)" style="opacity: 1; stroke-width: 0px; fill: rgb(99, 110, 250); fill-opacity: 1;"/><path class="point" d="M3,0A3,3 0 1,1 0,-3A3,3 0 0,1 3,0Z" transform="translate(312.49362651078195,318.11569276640876)" style="opacity: 1; stroke-width: 0px; fill: rgb(99, 110, 250); fill-opacity: 1;"/><path class="point" d="M3,0A3,3 0 1,1 0,-3A3,3 0 0,1 3,0Z" transform="translate(280.36669828134467,312.184123668158)" style="opacity: 1; stroke-width: 0px; fill: rgb(99, 110, 250); fill-opacity: 1;"/><path class="point" d="M3,0A3,3 0 1,1 0,-3A3,3 0 0,1 3,0Z" transform="translate(405.65139467727624,324.82307803197136)" style="opacity: 1; stroke-width: 0px; fill: rgb(99, 110, 250); fill-opacity: 1;"/><path class="point" d="M3,0A3,3 0 1,1 0,-3A3,3 0 0,1 3,0Z" transform="translate(344.19275781185456,297.1552993083542)" style="opacity: 1; stroke-width: 0px; fill: rgb(99, 110, 250); fill-opacity: 1;"/><path class="point" d="M3,0A3,3 0 1,1 0,-3A3,3 0 0,1 3,0Z" transform="translate(383.59562598674086,300.27746087421156)" style="opacity: 1; stroke-width: 0px; fill: rgb(99, 110, 250); fill-opacity: 1;"/><path class="point" d="M3,0A3,3 0 1,1 0,-3A3,3 0 0,1 3,0Z" transform="translate(209.09653520354453,253.5833060270079)" style="opacity: 1; stroke-width: 0px; fill: rgb(99, 110, 250); fill-opacity: 1;"/><path class="point" d="M3,0A3,3 0 1,1 0,-3A3,3 0 0,1 3,0Z" transform="translate(321.7058857561496,250.36869689904506)" style="opacity: 1; stroke-width: 0px; fill: rgb(99, 110, 250); fill-opacity: 1;"/><path class="point" d="M3,0A3,3 0 1,1 0,-3A3,3 0 0,1 3,0Z" transform="translate(257.09647363738804,214.77470485957974)" style="opacity: 1; stroke-width: 0px; fill: rgb(99, 110, 250); fill-opacity: 1;"/><path class="point" d="M3,0A3,3 0 1,1 0,-3A3,3 0 0,1 3,0Z" transform="translate(407.98629627440397,219.3528695153077)" style="opacity: 1; stroke-width: 0px; fill: rgb(99, 110, 250); fill-opacity: 1;"/><path class="point" d="M3,0A3,3 0 1,1 0,-3A3,3 0 0,1 3,0Z" transform="translate(276.25299006838344,160.2623319664067)" style="opacity: 1; stroke-width: 0px; fill: rgb(99, 110, 250); fill-opacity: 1;"/></g></g></g></g></g><g class="funnelarealayer"/><g class="pielayer"/><g class="iciclelayer"/><g class="treemaplayer"/><g class="sunburstlayer"/><g class="glimages"/><defs id="topdefs-c2b8eb"><g class="clips"/></defs><g class="layer-above"><g class="imagelayer"/><g class="shapelayer"/></g><g class="infolayer"><g class="g-gtitle"><text class="gtitle" x="30" y="0" text-anchor="start" dy="0em" style="font-family: 'Open Sans', verdana, arial, sans-serif; font-size: 17px; fill: rgb(42, 63, 95); opacity: 1; font-weight: normal; white-space: pre;">Cybera Member locations</text></g></g></svg>