<?xml version="1.0" encoding="UTF-8" standalone="no"?>
<!-- Created with Inkscape (http://www.inkscape.org/) -->

<svg
   width="48in"
   height="96in"
   viewBox="0 0 4608 9216"
   version="1.1"
   id="svg5"
   inkscape:version="1.1.2 (0a00cf5339, 2022-02-04)"
   sodipodi:docname="member_map_48x96.svg"
   xmlns:inkscape="http://www.inkscape.org/namespaces/inkscape"
   xmlns:sodipodi="http://sodipodi.sourceforge.net/DTD/sodipodi-0.dtd"
   xmlns="http://www.w3.org/2000/svg"
   xmlns:svg="http://www.w3.org/2000/svg">
  <sodipodi:namedview
     id="namedview7"
     pagecolor="#ffffff"
     bordercolor="#666666"
     borderopacity="1.0"
     inkscape:pageshadow="2"
     inkscape:pageopacity="0.0"
     inkscape:pagecheckerboard="0"
     inkscape:document-units="in"
     showgrid="false"
     width="48in"
     inkscape:zoom="0.064644608"
     inkscape:cx="-3147.981"
     inkscape:cy="5553.4407"
     inkscape:window-width="1920"
     inkscape:window-height="1043"
     inkscape:window-x="0"
     inkscape:window-y="0"
     inkscape:window-maximized="1"
     inkscape:current-layer="g267" />
  <defs
     id="defs2">
    <g
       class="clips"
       id="g14">
      <clipPath
         id="clip65e18bgeo">
        <rect
           x="130.43264795580444"
           y="4.547473508864641e-13"
           width="339.1347040883911"
           height="600"
           id="rect11" />
      </clipPath>
    </g>
    <g
       class="gradients"
       id="g16" />
    <g
       class="patterns"
       id="g18" />
    <g
       class="clips"
       id="g281" />
  </defs>
  <g
     inkscape:label="Layer 1"
     inkscape:groupmode="layer"
     id="layer1">
    <g
       id="g443"
       transform="matrix(12.965699,0,0,15.301695,-1864.2111,-5.5997791)">
      <g
         class="bglayer"
         id="g21" />
      <g
         class="layer-below"
         id="g27">
        <g
           class="imagelayer"
           id="g23" />
        <g
           class="shapelayer"
           id="g25" />
      </g>
      <g
         class="cartesianlayer"
         id="g29" />
      <g
         class="polarlayer"
         id="g31" />
      <g
         class="smithlayer"
         id="g33" />
      <g
         class="ternarylayer"
         id="g35" />
      <g
         class="geolayer"
         id="g267"
         transform="translate(-536.65824,-57.547961)">
        <g
           class="layer bg"
           id="g39"
           transform="translate(554.16559,60.092171)">
          <rect
             x="130.43265"
             y="4.5474735e-13"
             width="339.1347"
             height="600"
             style="fill:#ffffff;fill-opacity:1"
             id="rect37" />
        </g>
        <g
           class="layer land"
           id="g43"
           transform="translate(554.16559,60.092171)">
          <path
             d="m 130.43265,0 h 339.1347 v 600 h -339.1347 z"
             style="fill:#ffffff;fill-opacity:1;stroke:none"
             id="path41" />
        </g>
        <path
           d="m 954.41984,611.96232 -8.95651,-0.97359 -11.93667,-1.34623 -11.55763,-1.35657 -11.92398,-1.45441 -11.54485,-1.46131 -11.9103,-1.56246 -11.90298,-1.6173 -11.52379,-1.61902 -11.88783,-1.72515 -8.91058,-1.32979 0.53237,-1.01252 -0.20966,-1.12463 -1.52994,-2.41801 -0.78623,-2.30653 -0.57738,-1.18169 -4.16491,-2.46216 -0.6292,-0.82672 0.1652,-1.06894 -0.9977,-0.88414 -1.08895,-2.72373 -1.8228,-2.83992 -0.51344,-1.54112 0.16763,-1.06941 0.81478,-2.7947 0.16753,-1.06984 -0.67909,-0.47184 -2.20465,-0.34687 -0.98937,-0.88729 -0.25434,-0.7713 0.11295,-0.71322 1.74975,-1.5513 1.66198,-3.3946 0.44925,-2.8553 -0.19648,-5.88561 0.1127,-0.7143 0.95505,-1.31376 0.22505,-1.42904 -0.083,-1.84399 -1.00496,-3.08903 -0.2848,-9.94232 -4.16754,-8.74059 -1.21319,-1.66485 -1.02481,-0.53331 -1.08264,-0.17585 -2.03808,1.13712 -0.36103,-0.059 -0.30245,-0.41684 -0.84796,-1.60861 -0.84661,-1.6091 -0.30155,-0.41719 0.47823,-0.65639 0.1178,-0.71578 -0.18336,-1.13307 -0.24205,-0.77522 -0.24182,-0.7753 -0.41898,0.29855 -0.35989,-0.0595 -0.35988,-0.0595 -0.3006,-0.41751 -0.90112,-1.25281 -4.73116,-4.83856 0.12048,-0.71599 1.73564,-1.54927 -0.1783,-1.13453 -0.53626,-1.19487 -3.50771,-5.38257 -3.74774,-1.74578 -1.53937,-1.73975 -0.23347,-0.77796 0.13771,-2.92775 -0.29458,-0.41987 -0.29446,-0.41992 -1.88892,-1.80379 -0.88098,-1.26087 -1.59138,-1.38565 -0.52301,-1.19965 -0.31092,-4.4885 -1.39483,-2.46357 -0.39221,-1.91817 -1.16262,-1.68532 -0.74325,-1.98187 -1.51246,-1.74976 -0.93132,-4.98007 -0.86481,-1.26649 -0.92842,-0.90803 -1.18692,0.52699 -0.83483,0.59016 -0.8352,0.58982 -0.25995,1.43478 -0.3529,-0.064 -2.18255,-0.0263 -0.50943,-1.20447 -1.63545,-6.97272 -0.79081,-1.6293 -3.21629,-6.16294 -1.29856,-4.69992 -0.63262,-0.48992 -0.83426,0.58706 -5.24791,-0.98945 -3.71591,-3.31145 -0.8413,-1.27745 -0.70218,-1.99572 3.12906,-3.12241 0.20614,-1.07757 -0.62763,-0.49254 -2.78662,-2.3982 -2.71132,-2.76095 -0.83461,0.58324 -0.69715,1.72787 -0.41772,0.2913 -3.75942,0.75531 -0.69579,-0.13674 -0.4837,-1.21351 0.28279,-1.43565 0.7008,-1.72654 -0.75841,-1.64141 0.007,-1.86396 -1.23543,-2.8569 1.11923,-2.01843 0.28442,-1.43739 -0.40678,-1.57453 -1.02518,-2.07149 -0.26123,-2.29434 -0.67624,-2.00402 -0.54567,-0.85683 -2.75631,-0.55241 -0.54422,-0.85764 -0.18127,-2.65577 0.16401,-2.58713 -1.15602,-1.35688 -0.95727,-0.56843 0.51079,-2.51853 -0.39357,-1.57867 -2.56934,-3.14757 -1.56367,-1.07031 -0.90613,0.93903 -0.93417,2.80762 -0.26866,-0.43018 -4.95659,-3.65159 -1.06794,-1.72381 -1.41136,-5.1769 -0.60658,-0.50307 -4.0154,-1.22329 -1.43979,0.0702 -0.60516,-0.50463 -1.05603,-1.72902 -1.612,-4.10661 -0.44804,-1.22519 -1.01928,-0.2192 0.46473,-2.15873 -0.29095,-1.94556 0.0776,-0.35991 0.67823,0.14611 3.731,0.80013 0.49299,-0.64775 -1.41708,-3.31621 -1.61574,-0.72376 -0.52194,-0.86606 0.0498,-1.87391 -1.11898,-1.37267 -0.20795,-2.3079 3.51425,-16.23319 3.52231,-16.27041 3.60918,-16.67168 3.53938,-16.34929 3.54823,-16.39012 3.63649,-16.79784 3.56692,-16.4765 3.57659,-16.52115 3.58655,-16.56713 3.67683,-16.98422 3.60758,-16.66426 3.61843,-16.71443 3.6296,-16.76603 3.72214,-17.19349 3.65319,-16.87496 3.66536,-16.931178 13.77755,2.934928 14.09682,2.90446 13.8156,2.75027 13.83351,2.65874 13.8508,2.5671 14.16915,2.52814 13.88392,2.38149 13.89939,2.28952 14.21688,2.2442 13.92879,2.10328 13.9424,2.01102 13.95541,1.91867 14.27159,1.86492 13.97985,1.73172 13.991,1.63913 14.30605,1.57906 -1.6379,15.31408 -1.6739,15.64991 -1.6282,15.22347 -1.66414,15.55936 -1.61901,15.13734 -1.65495,15.4733 -1.61026,15.05551 -1.6061,15.01663 -1.64205,15.35272 -1.598,14.94089 -1.63396,15.27709 -1.59032,14.86902 -1.62628,15.20536 -1.58303,14.80088 -1.61902,15.13737 -1.57612,14.73633 -1.61213,15.07299 -1.56959,14.67524 -1.60562,15.01211 -1.56341,14.61749 -1.56049,14.59017 -1.59656,14.92739 -1.55482,14.53722 -1.59093,14.87469 -1.54949,14.48734 -1.58562,14.82511 -1.54447,14.44045 -1.58064,14.77855 -1.53977,14.39646 -1.57597,14.73491 -1.53537,14.35529 z"
           style="fill:none;stroke:#000000;stroke-width:1px;stroke-miterlimit:2;stroke-opacity:1"
           id="path45"
           sodipodi:nodetypes="cccccccccccccccccccccccccccccccccccccccccccccccccccccccccccccccccccccccccccccccccccccccccccccccccccccccccccccccccccccccccccccccccccccccccccccccccccccccccccccccccccccccccccccccccccccccccccccccccccccccccccccccccccccccccccccccccc" />
        <g
           class="layer lataxis"
           id="g55"
           transform="translate(554.16559,60.092171)">
          <path
             d="m 130.43265,464.70076 4.40703,1.01571 67.00372,13.57332 67.3416,11.7831 67.63167,9.98452 67.87371,8.17883 64.87697,6.06889 m -339.1347,-271.57552 49.97071,11.51705 61.37929,12.43395 61.68882,10.794 61.95454,9.1464 62.17626,7.49229 41.96508,3.9256 m -339.1347,-284.627018 41.75947,10.80406 55.25274,12.734429 55.57246,11.257626 55.85269,9.772828 56.09327,8.281091 56.29401,6.783472 18.31006,1.712806"
             style="fill:none;stroke:#eeeeee;stroke-width:0.5px;stroke-opacity:1"
             id="path53" />
        </g>
        <g
           class="layer backplot"
           id="g63">
          <g
             class="choroplethlayer"
             id="g61" />
        </g>
        <g
           class="layer frontplot"
           id="g263"
           transform="translate(554.16559,60.092171)">
          <g
             class="scatterlayer"
             id="g261">
            <g
               class="trace scattergeo"
               style="opacity:1"
               id="g259">
              <path
                 class="point"
                 d="M 3,0 A 3,3 0 1 1 0,-3 3,3 0 0 1 3,0 Z"
                 transform="translate(318.76247,391.9405)"
                 style="opacity:1;fill:#636efa;fill-opacity:1;stroke-width:0px"
                 id="path65" />
              <path
                 class="point"
                 d="M 3,0 A 3,3 0 1 1 0,-3 3,3 0 0 1 3,0 Z"
                 transform="translate(303.43587,453.81585)"
                 style="opacity:1;fill:#636efa;fill-opacity:1;stroke-width:0px"
                 id="path67" />
              <path
                 class="point"
                 d="M 3,0 A 3,3 0 1 1 0,-3 3,3 0 0 1 3,0 Z"
                 transform="translate(331.59469,346.87606)"
                 style="opacity:1;fill:#636efa;fill-opacity:1;stroke-width:0px"
                 id="path69" />
              <path
                 class="point"
                 d="M 3,0 A 3,3 0 1 1 0,-3 3,3 0 0 1 3,0 Z"
                 transform="translate(299.86088,450.03096)"
                 style="opacity:1;fill:#636efa;fill-opacity:1;stroke-width:0px"
                 id="path71" />
              <path
                 class="point"
                 d="M 3,0 A 3,3 0 1 1 0,-3 3,3 0 0 1 3,0 Z"
                 transform="translate(344.19276,297.1553)"
                 style="opacity:1;fill:#636efa;fill-opacity:1;stroke-width:0px"
                 id="path73" />
              <path
                 class="point"
                 d="M 3,0 A 3,3 0 1 1 0,-3 3,3 0 0 1 3,0 Z"
                 transform="translate(344.19276,297.1553)"
                 style="opacity:1;fill:#636efa;fill-opacity:1;stroke-width:0px"
                 id="path75" />
              <path
                 class="point"
                 d="M 3,0 A 3,3 0 1 1 0,-3 3,3 0 0 1 3,0 Z"
                 transform="translate(262.09767,439.06565)"
                 style="opacity:1;fill:#636efa;fill-opacity:1;stroke-width:0px"
                 id="path77" />
              <path
                 class="point"
                 d="M 3,0 A 3,3 0 1 1 0,-3 3,3 0 0 1 3,0 Z"
                 transform="translate(345.35919,371.78575)"
                 style="opacity:1;fill:#636efa;fill-opacity:1;stroke-width:0px"
                 id="path79" />
              <path
                 class="point"
                 d="M 3,0 A 3,3 0 1 1 0,-3 3,3 0 0 1 3,0 Z"
                 transform="translate(328.48572,358.48987)"
                 style="opacity:1;fill:#636efa;fill-opacity:1;stroke-width:0px"
                 id="path81" />
              <path
                 class="point"
                 d="M 3,0 A 3,3 0 1 1 0,-3 3,3 0 0 1 3,0 Z"
                 transform="translate(287.4091,391.46813)"
                 style="opacity:1;fill:#636efa;fill-opacity:1;stroke-width:0px"
                 id="path83" />
              <path
                 class="point"
                 d="M 3,0 A 3,3 0 1 1 0,-3 3,3 0 0 1 3,0 Z"
                 transform="translate(301.79008,451.83122)"
                 style="opacity:1;fill:#636efa;fill-opacity:1;stroke-width:0px"
                 id="path85" />
              <path
                 class="point"
                 d="M 3,0 A 3,3 0 1 1 0,-3 3,3 0 0 1 3,0 Z"
                 transform="translate(395.43255,385.87545)"
                 style="opacity:1;fill:#636efa;fill-opacity:1;stroke-width:0px"
                 id="path87" />
              <path
                 class="point"
                 d="M 3,0 A 3,3 0 1 1 0,-3 3,3 0 0 1 3,0 Z"
                 transform="translate(318.76247,391.9405)"
                 style="opacity:1;fill:#636efa;fill-opacity:1;stroke-width:0px"
                 id="path89" />
              <path
                 class="point"
                 d="M 3,0 A 3,3 0 1 1 0,-3 3,3 0 0 1 3,0 Z"
                 transform="translate(300.78182,451.07389)"
                 style="opacity:1;fill:#636efa;fill-opacity:1;stroke-width:0px"
                 id="path91" />
              <path
                 class="point"
                 d="M 3,0 A 3,3 0 1 1 0,-3 3,3 0 0 1 3,0 Z"
                 transform="translate(311.14849,451.34035)"
                 style="opacity:1;fill:#636efa;fill-opacity:1;stroke-width:0px"
                 id="path93" />
              <path
                 class="point"
                 d="M 3,0 A 3,3 0 1 1 0,-3 3,3 0 0 1 3,0 Z"
                 transform="translate(302.53335,449.33236)"
                 style="opacity:1;fill:#636efa;fill-opacity:1;stroke-width:0px"
                 id="path95" />
              <path
                 class="point"
                 d="M 3,0 A 3,3 0 1 1 0,-3 3,3 0 0 1 3,0 Z"
                 transform="translate(301.09451,453.35992)"
                 style="opacity:1;fill:#636efa;fill-opacity:1;stroke-width:0px"
                 id="path97" />
              <path
                 class="point"
                 d="M 3,0 A 3,3 0 1 1 0,-3 3,3 0 0 1 3,0 Z"
                 transform="translate(267.39728,443.78731)"
                 style="opacity:1;fill:#636efa;fill-opacity:1;stroke-width:0px"
                 id="path99" />
              <path
                 class="point"
                 d="M 3,0 A 3,3 0 1 1 0,-3 3,3 0 0 1 3,0 Z"
                 transform="translate(310.37357,409.81373)"
                 style="opacity:1;fill:#636efa;fill-opacity:1;stroke-width:0px"
                 id="path101" />
              <path
                 class="point"
                 d="M 3,0 A 3,3 0 1 1 0,-3 3,3 0 0 1 3,0 Z"
                 transform="translate(311.14849,451.34035)"
                 style="opacity:1;fill:#636efa;fill-opacity:1;stroke-width:0px"
                 id="path103" />
              <path
                 class="point"
                 d="M 3,0 A 3,3 0 1 1 0,-3 3,3 0 0 1 3,0 Z"
                 transform="translate(331.59469,346.87606)"
                 style="opacity:1;fill:#636efa;fill-opacity:1;stroke-width:0px"
                 id="path105" />
              <path
                 class="point"
                 d="M 3,0 A 3,3 0 1 1 0,-3 3,3 0 0 1 3,0 Z"
                 transform="translate(328.11596,514.54741)"
                 style="opacity:1;fill:#636efa;fill-opacity:1;stroke-width:0px"
                 id="path107" />
              <path
                 class="point"
                 d="M 3,0 A 3,3 0 1 1 0,-3 3,3 0 0 1 3,0 Z"
                 transform="translate(314.66886,401.56194)"
                 style="opacity:1;fill:#636efa;fill-opacity:1;stroke-width:0px"
                 id="path109" />
              <path
                 class="point"
                 d="M 3,0 A 3,3 0 1 1 0,-3 3,3 0 0 1 3,0 Z"
                 transform="translate(370.06343,412.98534)"
                 style="opacity:1;fill:#636efa;fill-opacity:1;stroke-width:0px"
                 id="path111" />
              <path
                 class="point"
                 d="M 3,0 A 3,3 0 1 1 0,-3 3,3 0 0 1 3,0 Z"
                 transform="translate(336.86317,339.20996)"
                 style="opacity:1;fill:#636efa;fill-opacity:1;stroke-width:0px"
                 id="path113" />
              <path
                 class="point"
                 d="M 3,0 A 3,3 0 1 1 0,-3 3,3 0 0 1 3,0 Z"
                 transform="translate(332.44366,347.90873)"
                 style="opacity:1;fill:#636efa;fill-opacity:1;stroke-width:0px"
                 id="path115" />
              <path
                 class="point"
                 d="M 3,0 A 3,3 0 1 1 0,-3 3,3 0 0 1 3,0 Z"
                 transform="translate(302.53335,449.33236)"
                 style="opacity:1;fill:#636efa;fill-opacity:1;stroke-width:0px"
                 id="path117" />
              <path
                 class="point"
                 d="M 3,0 A 3,3 0 1 1 0,-3 3,3 0 0 1 3,0 Z"
                 transform="translate(395.43255,385.87545)"
                 style="opacity:1;fill:#636efa;fill-opacity:1;stroke-width:0px"
                 id="path119" />
              <path
                 class="point"
                 d="M 3,0 A 3,3 0 1 1 0,-3 3,3 0 0 1 3,0 Z"
                 transform="translate(290.43288,448.28043)"
                 style="opacity:1;fill:#636efa;fill-opacity:1;stroke-width:0px"
                 id="path121" />
              <path
                 class="point"
                 d="M 3,0 A 3,3 0 1 1 0,-3 3,3 0 0 1 3,0 Z"
                 transform="translate(331.59469,346.87606)"
                 style="opacity:1;fill:#636efa;fill-opacity:1;stroke-width:0px"
                 id="path123" />
              <path
                 class="point"
                 d="M 3,0 A 3,3 0 1 1 0,-3 3,3 0 0 1 3,0 Z"
                 transform="translate(311.14849,451.34035)"
                 style="opacity:1;fill:#636efa;fill-opacity:1;stroke-width:0px"
                 id="path125" />
              <path
                 class="point"
                 d="M 3,0 A 3,3 0 1 1 0,-3 3,3 0 0 1 3,0 Z"
                 transform="translate(320.81145,345.70039)"
                 style="opacity:1;fill:#636efa;fill-opacity:1;stroke-width:0px"
                 id="path127" />
              <path
                 class="point"
                 d="M 3,0 A 3,3 0 1 1 0,-3 3,3 0 0 1 3,0 Z"
                 transform="translate(303.4172,471.2342)"
                 style="opacity:1;fill:#636efa;fill-opacity:1;stroke-width:0px"
                 id="path129" />
              <path
                 class="point"
                 d="M 3,0 A 3,3 0 1 1 0,-3 3,3 0 0 1 3,0 Z"
                 transform="translate(407.9863,219.35287)"
                 style="opacity:1;fill:#636efa;fill-opacity:1;stroke-width:0px"
                 id="path131" />
              <path
                 class="point"
                 d="M 3,0 A 3,3 0 1 1 0,-3 3,3 0 0 1 3,0 Z"
                 transform="translate(276.25299,160.26233)"
                 style="opacity:1;fill:#636efa;fill-opacity:1;stroke-width:0px"
                 id="path133" />
              <path
                 class="point"
                 d="M 3,0 A 3,3 0 1 1 0,-3 3,3 0 0 1 3,0 Z"
                 transform="translate(301.09451,453.35992)"
                 style="opacity:1;fill:#636efa;fill-opacity:1;stroke-width:0px"
                 id="path135" />
              <path
                 class="point"
                 d="M 3,0 A 3,3 0 1 1 0,-3 3,3 0 0 1 3,0 Z"
                 transform="translate(300.16307,448.23488)"
                 style="opacity:1;fill:#636efa;fill-opacity:1;stroke-width:0px"
                 id="path137" />
              <path
                 class="point"
                 d="M 3,0 A 3,3 0 1 1 0,-3 3,3 0 0 1 3,0 Z"
                 transform="translate(299.23099,456.53909)"
                 style="opacity:1;fill:#636efa;fill-opacity:1;stroke-width:0px"
                 id="path139" />
              <path
                 class="point"
                 d="M 3,0 A 3,3 0 1 1 0,-3 3,3 0 0 1 3,0 Z"
                 transform="translate(208.69844,253.12638)"
                 style="opacity:1;fill:#636efa;fill-opacity:1;stroke-width:0px"
                 id="path141" />
              <path
                 class="point"
                 d="M 3,0 A 3,3 0 1 1 0,-3 3,3 0 0 1 3,0 Z"
                 transform="translate(208.69844,253.12638)"
                 style="opacity:1;fill:#636efa;fill-opacity:1;stroke-width:0px"
                 id="path143" />
              <path
                 class="point"
                 d="M 3,0 A 3,3 0 1 1 0,-3 3,3 0 0 1 3,0 Z"
                 transform="translate(208.69844,253.12638)"
                 style="opacity:1;fill:#636efa;fill-opacity:1;stroke-width:0px"
                 id="path145" />
              <path
                 class="point"
                 d="M 3,0 A 3,3 0 1 1 0,-3 3,3 0 0 1 3,0 Z"
                 transform="translate(257.2743,333.13703)"
                 style="opacity:1;fill:#636efa;fill-opacity:1;stroke-width:0px"
                 id="path147" />
              <path
                 class="point"
                 d="M 3,0 A 3,3 0 1 1 0,-3 3,3 0 0 1 3,0 Z"
                 transform="translate(356.63035,478.58472)"
                 style="opacity:1;fill:#636efa;fill-opacity:1;stroke-width:0px"
                 id="path149" />
              <path
                 class="point"
                 d="M 3,0 A 3,3 0 1 1 0,-3 3,3 0 0 1 3,0 Z"
                 transform="translate(328.6523,342.48268)"
                 style="opacity:1;fill:#636efa;fill-opacity:1;stroke-width:0px"
                 id="path151" />
              <path
                 class="point"
                 d="M 3,0 A 3,3 0 1 1 0,-3 3,3 0 0 1 3,0 Z"
                 transform="translate(321.70589,250.3687)"
                 style="opacity:1;fill:#636efa;fill-opacity:1;stroke-width:0px"
                 id="path153" />
              <path
                 class="point"
                 d="M 3,0 A 3,3 0 1 1 0,-3 3,3 0 0 1 3,0 Z"
                 transform="translate(257.09647,214.7747)"
                 style="opacity:1;fill:#636efa;fill-opacity:1;stroke-width:0px"
                 id="path155" />
              <path
                 class="point"
                 d="M 3,0 A 3,3 0 1 1 0,-3 3,3 0 0 1 3,0 Z"
                 transform="translate(326.44574,512.52152)"
                 style="opacity:1;fill:#636efa;fill-opacity:1;stroke-width:0px"
                 id="path157" />
              <path
                 class="point"
                 d="M 3,0 A 3,3 0 1 1 0,-3 3,3 0 0 1 3,0 Z"
                 transform="translate(345.24452,511.30741)"
                 style="opacity:1;fill:#636efa;fill-opacity:1;stroke-width:0px"
                 id="path159" />
              <path
                 class="point"
                 d="M 3,0 A 3,3 0 1 1 0,-3 3,3 0 0 1 3,0 Z"
                 transform="translate(321.70589,250.3687)"
                 style="opacity:1;fill:#636efa;fill-opacity:1;stroke-width:0px"
                 id="path161" />
              <path
                 class="point"
                 d="M 3,0 A 3,3 0 1 1 0,-3 3,3 0 0 1 3,0 Z"
                 transform="translate(333.3956,348.44842)"
                 style="opacity:1;fill:#636efa;fill-opacity:1;stroke-width:0px"
                 id="path163" />
              <path
                 class="point"
                 d="M 3,0 A 3,3 0 1 1 0,-3 3,3 0 0 1 3,0 Z"
                 transform="translate(383.59563,300.27746)"
                 style="opacity:1;fill:#636efa;fill-opacity:1;stroke-width:0px"
                 id="path165" />
              <path
                 class="point"
                 d="M 3,0 A 3,3 0 1 1 0,-3 3,3 0 0 1 3,0 Z"
                 transform="translate(398.20633,363.24516)"
                 style="opacity:1;fill:#636efa;fill-opacity:1;stroke-width:0px"
                 id="path167" />
              <path
                 class="point"
                 d="M 3,0 A 3,3 0 1 1 0,-3 3,3 0 0 1 3,0 Z"
                 transform="translate(325.71314,514.51789)"
                 style="opacity:1;fill:#636efa;fill-opacity:1;stroke-width:0px"
                 id="path169" />
              <path
                 class="point"
                 d="M 3,0 A 3,3 0 1 1 0,-3 3,3 0 0 1 3,0 Z"
                 transform="translate(328.11596,514.54741)"
                 style="opacity:1;fill:#636efa;fill-opacity:1;stroke-width:0px"
                 id="path171" />
              <path
                 class="point"
                 d="M 3,0 A 3,3 0 1 1 0,-3 3,3 0 0 1 3,0 Z"
                 transform="translate(289.26674,467.01423)"
                 style="opacity:1;fill:#636efa;fill-opacity:1;stroke-width:0px"
                 id="path173" />
              <path
                 class="point"
                 d="M 3,0 A 3,3 0 1 1 0,-3 3,3 0 0 1 3,0 Z"
                 transform="translate(280.3667,312.18412)"
                 style="opacity:1;fill:#636efa;fill-opacity:1;stroke-width:0px"
                 id="path175" />
              <path
                 class="point"
                 d="M 3,0 A 3,3 0 1 1 0,-3 3,3 0 0 1 3,0 Z"
                 transform="translate(331.59469,346.87606)"
                 style="opacity:1;fill:#636efa;fill-opacity:1;stroke-width:0px"
                 id="path177" />
              <path
                 class="point"
                 d="M 3,0 A 3,3 0 1 1 0,-3 3,3 0 0 1 3,0 Z"
                 transform="translate(389.34797,504.05351)"
                 style="opacity:1;fill:#636efa;fill-opacity:1;stroke-width:0px"
                 id="path179" />
              <path
                 class="point"
                 d="M 3,0 A 3,3 0 1 1 0,-3 3,3 0 0 1 3,0 Z"
                 transform="translate(389.34797,504.05351)"
                 style="opacity:1;fill:#636efa;fill-opacity:1;stroke-width:0px"
                 id="path181" />
              <path
                 class="point"
                 d="M 3,0 A 3,3 0 1 1 0,-3 3,3 0 0 1 3,0 Z"
                 transform="translate(389.34797,504.05351)"
                 style="opacity:1;fill:#636efa;fill-opacity:1;stroke-width:0px"
                 id="path183" />
              <path
                 class="point"
                 d="M 3,0 A 3,3 0 1 1 0,-3 3,3 0 0 1 3,0 Z"
                 transform="translate(300.16307,448.23488)"
                 style="opacity:1;fill:#636efa;fill-opacity:1;stroke-width:0px"
                 id="path185" />
              <path
                 class="point"
                 d="M 3,0 A 3,3 0 1 1 0,-3 3,3 0 0 1 3,0 Z"
                 transform="translate(298.29476,452.91416)"
                 style="opacity:1;fill:#636efa;fill-opacity:1;stroke-width:0px"
                 id="path187" />
              <path
                 class="point"
                 d="M 3,0 A 3,3 0 1 1 0,-3 3,3 0 0 1 3,0 Z"
                 transform="translate(331.57071,345.66071)"
                 style="opacity:1;fill:#636efa;fill-opacity:1;stroke-width:0px"
                 id="path189" />
              <path
                 class="point"
                 d="M 3,0 A 3,3 0 1 1 0,-3 3,3 0 0 1 3,0 Z"
                 transform="translate(331.59469,346.87606)"
                 style="opacity:1;fill:#636efa;fill-opacity:1;stroke-width:0px"
                 id="path191" />
              <path
                 class="point"
                 d="M 3,0 A 3,3 0 1 1 0,-3 3,3 0 0 1 3,0 Z"
                 transform="translate(280.3667,312.18412)"
                 style="opacity:1;fill:#636efa;fill-opacity:1;stroke-width:0px"
                 id="path193" />
              <path
                 class="point"
                 d="M 3,0 A 3,3 0 1 1 0,-3 3,3 0 0 1 3,0 Z"
                 transform="translate(321.70589,250.3687)"
                 style="opacity:1;fill:#636efa;fill-opacity:1;stroke-width:0px"
                 id="path195" />
              <path
                 class="point"
                 d="M 3,0 A 3,3 0 1 1 0,-3 3,3 0 0 1 3,0 Z"
                 transform="translate(383.59563,300.27746)"
                 style="opacity:1;fill:#636efa;fill-opacity:1;stroke-width:0px"
                 id="path197" />
              <path
                 class="point"
                 d="M 3,0 A 3,3 0 1 1 0,-3 3,3 0 0 1 3,0 Z"
                 transform="translate(405.65139,324.82308)"
                 style="opacity:1;fill:#636efa;fill-opacity:1;stroke-width:0px"
                 id="path199" />
              <path
                 class="point"
                 d="M 3,0 A 3,3 0 1 1 0,-3 3,3 0 0 1 3,0 Z"
                 transform="translate(257.09647,214.7747)"
                 style="opacity:1;fill:#636efa;fill-opacity:1;stroke-width:0px"
                 id="path201" />
              <path
                 class="point"
                 d="M 3,0 A 3,3 0 1 1 0,-3 3,3 0 0 1 3,0 Z"
                 transform="translate(208.69844,253.12638)"
                 style="opacity:1;fill:#636efa;fill-opacity:1;stroke-width:0px"
                 id="path203" />
              <path
                 class="point"
                 d="M 3,0 A 3,3 0 1 1 0,-3 3,3 0 0 1 3,0 Z"
                 transform="translate(329.34516,347.62968)"
                 style="opacity:1;fill:#636efa;fill-opacity:1;stroke-width:0px"
                 id="path205" />
              <path
                 class="point"
                 d="M 3,0 A 3,3 0 1 1 0,-3 3,3 0 0 1 3,0 Z"
                 transform="translate(326.44574,512.52152)"
                 style="opacity:1;fill:#636efa;fill-opacity:1;stroke-width:0px"
                 id="path207" />
              <path
                 class="point"
                 d="M 3,0 A 3,3 0 1 1 0,-3 3,3 0 0 1 3,0 Z"
                 transform="translate(318.68921,345.38222)"
                 style="opacity:1;fill:#636efa;fill-opacity:1;stroke-width:0px"
                 id="path209" />
              <path
                 class="point"
                 d="M 3,0 A 3,3 0 1 1 0,-3 3,3 0 0 1 3,0 Z"
                 transform="translate(211.08961,255.86663)"
                 style="opacity:1;fill:#636efa;fill-opacity:1;stroke-width:0px"
                 id="path211" />
              <path
                 class="point"
                 d="M 3,0 A 3,3 0 1 1 0,-3 3,3 0 0 1 3,0 Z"
                 transform="translate(276.25299,160.26233)"
                 style="opacity:1;fill:#636efa;fill-opacity:1;stroke-width:0px"
                 id="path213" />
              <path
                 class="point"
                 d="M 3,0 A 3,3 0 1 1 0,-3 3,3 0 0 1 3,0 Z"
                 transform="translate(208.69844,253.12638)"
                 style="opacity:1;fill:#636efa;fill-opacity:1;stroke-width:0px"
                 id="path215" />
              <path
                 class="point"
                 d="M 3,0 A 3,3 0 1 1 0,-3 3,3 0 0 1 3,0 Z"
                 transform="translate(312.49363,318.11569)"
                 style="opacity:1;fill:#636efa;fill-opacity:1;stroke-width:0px"
                 id="path217" />
              <path
                 class="point"
                 d="M 3,0 A 3,3 0 1 1 0,-3 3,3 0 0 1 3,0 Z"
                 transform="translate(383.59563,300.27746)"
                 style="opacity:1;fill:#636efa;fill-opacity:1;stroke-width:0px"
                 id="path219" />
              <path
                 class="point"
                 d="M 3,0 A 3,3 0 1 1 0,-3 3,3 0 0 1 3,0 Z"
                 transform="translate(370.10649,462.58774)"
                 style="opacity:1;fill:#636efa;fill-opacity:1;stroke-width:0px"
                 id="path221" />
              <path
                 class="point"
                 d="M 3,0 A 3,3 0 1 1 0,-3 3,3 0 0 1 3,0 Z"
                 transform="translate(389.76163,514.6564)"
                 style="opacity:1;fill:#636efa;fill-opacity:1;stroke-width:0px"
                 id="path223" />
              <path
                 class="point"
                 d="M 3,0 A 3,3 0 1 1 0,-3 3,3 0 0 1 3,0 Z"
                 transform="translate(314.66886,401.56194)"
                 style="opacity:1;fill:#636efa;fill-opacity:1;stroke-width:0px"
                 id="path225" />
              <path
                 class="point"
                 d="M 3,0 A 3,3 0 1 1 0,-3 3,3 0 0 1 3,0 Z"
                 transform="translate(314.66886,401.56194)"
                 style="opacity:1;fill:#636efa;fill-opacity:1;stroke-width:0px"
                 id="path227" />
              <path
                 class="point"
                 d="M 3,0 A 3,3 0 1 1 0,-3 3,3 0 0 1 3,0 Z"
                 transform="translate(314.66886,401.56194)"
                 style="opacity:1;fill:#636efa;fill-opacity:1;stroke-width:0px"
                 id="path229" />
              <path
                 class="point"
                 d="M 3,0 A 3,3 0 1 1 0,-3 3,3 0 0 1 3,0 Z"
                 transform="translate(314.66886,401.56194)"
                 style="opacity:1;fill:#636efa;fill-opacity:1;stroke-width:0px"
                 id="path231" />
              <path
                 class="point"
                 d="M 3,0 A 3,3 0 1 1 0,-3 3,3 0 0 1 3,0 Z"
                 transform="translate(307.21143,448.06995)"
                 style="opacity:1;fill:#636efa;fill-opacity:1;stroke-width:0px"
                 id="path233" />
              <path
                 class="point"
                 d="M 3,0 A 3,3 0 1 1 0,-3 3,3 0 0 1 3,0 Z"
                 transform="translate(285.90634,409.14076)"
                 style="opacity:1;fill:#636efa;fill-opacity:1;stroke-width:0px"
                 id="path235" />
              <path
                 class="point"
                 d="M 3,0 A 3,3 0 1 1 0,-3 3,3 0 0 1 3,0 Z"
                 transform="translate(328.48572,358.48987)"
                 style="opacity:1;fill:#636efa;fill-opacity:1;stroke-width:0px"
                 id="path237" />
              <path
                 class="point"
                 d="M 3,0 A 3,3 0 1 1 0,-3 3,3 0 0 1 3,0 Z"
                 transform="translate(299.75934,453.48217)"
                 style="opacity:1;fill:#636efa;fill-opacity:1;stroke-width:0px"
                 id="path239" />
              <path
                 class="point"
                 d="M 3,0 A 3,3 0 1 1 0,-3 3,3 0 0 1 3,0 Z"
                 transform="translate(289.26674,467.01423)"
                 style="opacity:1;fill:#636efa;fill-opacity:1;stroke-width:0px"
                 id="path241" />
              <path
                 class="point"
                 d="M 3,0 A 3,3 0 1 1 0,-3 3,3 0 0 1 3,0 Z"
                 transform="translate(329.27553,335.27249)"
                 style="opacity:1;fill:#636efa;fill-opacity:1;stroke-width:0px"
                 id="path243" />
              <path
                 class="point"
                 d="M 3,0 A 3,3 0 1 1 0,-3 3,3 0 0 1 3,0 Z"
                 transform="translate(330.56792,347.68075)"
                 style="opacity:1;fill:#636efa;fill-opacity:1;stroke-width:0px"
                 id="path245" />
              <path
                 class="point"
                 d="M 3,0 A 3,3 0 1 1 0,-3 3,3 0 0 1 3,0 Z"
                 transform="translate(299.86088,450.03096)"
                 style="opacity:1;fill:#636efa;fill-opacity:1;stroke-width:0px"
                 id="path247" />
              <path
                 class="point"
                 d="M 3,0 A 3,3 0 1 1 0,-3 3,3 0 0 1 3,0 Z"
                 transform="translate(325.71314,514.51789)"
                 style="opacity:1;fill:#636efa;fill-opacity:1;stroke-width:0px"
                 id="path249" />
              <path
                 class="point"
                 d="M 3,0 A 3,3 0 1 1 0,-3 3,3 0 0 1 3,0 Z"
                 transform="translate(331.33574,371.99364)"
                 style="opacity:1;fill:#636efa;fill-opacity:1;stroke-width:0px"
                 id="path251" />
              <path
                 class="point"
                 d="M 3,0 A 3,3 0 1 1 0,-3 3,3 0 0 1 3,0 Z"
                 transform="translate(326.44574,512.52152)"
                 style="opacity:1;fill:#636efa;fill-opacity:1;stroke-width:0px"
                 id="path253" />
              <path
                 class="point"
                 d="M 3,0 A 3,3 0 1 1 0,-3 3,3 0 0 1 3,0 Z"
                 transform="translate(287.4091,391.46813)"
                 style="opacity:1;fill:#636efa;fill-opacity:1;stroke-width:0px"
                 id="path255" />
              <path
                 class="point"
                 d="M 3,0 A 3,3 0 1 1 0,-3 3,3 0 0 1 3,0 Z"
                 transform="translate(324.05743,383.57654)"
                 style="opacity:1;fill:#636efa;fill-opacity:1;stroke-width:0px"
                 id="path257" />
            </g>
          </g>
        </g>
      </g>
      <g
         class="funnelarealayer"
         id="g269" />
      <g
         class="pielayer"
         id="g271" />
      <g
         class="iciclelayer"
         id="g273" />
      <g
         class="treemaplayer"
         id="g275" />
      <g
         class="sunburstlayer"
         id="g277" />
      <g
         class="glimages"
         id="g279" />
      <g
         class="layer-above"
         id="g288">
        <g
           class="imagelayer"
           id="g284" />
        <g
           class="shapelayer"
           id="g286" />
      </g>
    </g>
  </g>
</svg>
