<?xml version="1.0" encoding="utf-8"?>
<!-- Generator: Adobe Illustrator 27.1.0, SVG Export Plug-In . SVG Version: 6.00 Build 0)  -->
<svg version="1.1" id="Layer_1" xmlns="http://www.w3.org/2000/svg" xmlns:xlink="http://www.w3.org/1999/xlink" x="0px" y="0px"
	 viewBox="0 0 600 600" style="enable-background:new 0 0 600 600;" xml:space="preserve">
<style type="text/css">
	.st0{fill:#FFFFFF;}
	.st1{clip-path:url(#SVGID_00000111879358001784219980000003723040005894850740_);}
	.st2{fill:none;stroke:#000000;stroke-miterlimit:2;}
	.st3{fill:#636EFA;}
</style>
<rect class="st0" width="600" height="600"/>
<g>
	<defs>
		<rect id="SVGID_1_" x="130.4" width="339.1" height="600"/>
	</defs>
	<clipPath id="SVGID_00000039125960370051963480000008948022101828756385_">
		<use xlink:href="#SVGID_1_"  style="overflow:visible;"/>
	</clipPath>
	<g style="clip-path:url(#SVGID_00000039125960370051963480000008948022101828756385_);">
		<g>
			<rect x="130.4" class="st0" width="339.1" height="600"/>
		</g>
		<g>
			<path class="st0" d="M130.4,0h339.1v600H130.4V0z"/>
		</g>
		<path class="st2" d="M400.3,551.9l-9-1l-11.9-1.3l-11.6-1.4l-11.9-1.5l-11.5-1.5l-11.9-1.6l-11.9-1.6l-11.5-1.6l-11.9-1.7
			l-8.9-1.3l0.5-1l-0.2-1.1l-1.5-2.4l-0.8-2.3l-0.6-1.2l-4.2-2.5l-0.6-0.8l0.2-1.1l-1-0.9l-1.1-2.7l-1.8-2.8l-0.5-1.5l0.2-1.1
			l0.8-2.8l0.2-1.1l-0.7-0.5l-2.2-0.3l-1-0.9l-0.3-0.8l0.1-0.7l1.7-1.6l1.7-3.4l0.4-2.9l-0.2-5.9l0.1-0.7l1-1.3l0.2-1.4l-0.1-1.8
			l-1-3.1l-0.3-9.9l-4.2-8.7l-1.2-1.7l-1-0.5l-1.1-0.2l-2,1.1l-0.4-0.1l-0.3-0.4l-0.8-1.6l-0.8-1.6l-0.3-0.4l0.5-0.7l0.1-0.7
			l-0.2-1.1l-0.2-0.8l-0.2-0.8l-0.4,0.3l-0.4-0.1l-0.4-0.1l-0.3-0.4l-0.9-1.3l-4.7-4.8l0.1-0.7l1.7-1.5l-0.2-1.1l-0.5-1.2l-3.5-5.4
			l-3.7-1.7l-1.5-1.7l-0.2-0.8l0.1-2.9l-0.3-0.4l-0.3-0.4l-1.9-1.8l-0.9-1.3l-1.6-1.4l-0.5-1.2l-0.3-4.5l-1.4-2.5l-0.4-1.9l-1.2-1.7
			l-0.7-2l-1.5-1.7l-0.9-5l-0.9-1.3l-0.9-0.9l-1.2,0.5l-0.8,0.6l-0.8,0.6l-0.3,1.4l-0.4-0.1l-2.2,0l-0.5-1.2l-1.6-7l-0.8-1.6
			l-3.2-6.2l-1.3-4.7l-0.6-0.5l-0.8,0.6l-5.2-1l-3.7-3.3l-0.8-1.3l-0.7-2l3.1-3.1l0.2-1.1l-0.6-0.5l-2.8-2.4l-2.7-2.8l-0.8,0.6
			l-0.7,1.7l-0.4,0.3l-3.8,0.8l-0.7-0.1l-0.5-1.2l0.3-1.4l0.7-1.7l-0.8-1.6l0-1.9l-1.2-2.9l1.1-2l0.3-1.4l-0.4-1.6l-1-2.1l-0.3-2.3
			l-0.7-2l-0.5-0.9l-2.8-0.6l-0.5-0.9l-0.2-2.7l0.2-2.6l-1.2-1.4l-1-0.6l0.5-2.5l-0.4-1.6l-2.6-3.1l-1.6-1.1l-0.9,0.9l-0.9,2.8
			l-0.3-0.4l-5-3.7l-1.1-1.7l-1.4-5.2l-0.6-0.5l-4-1.2l-1.4,0.1l-0.6-0.5l-1.1-1.7l-1.6-4.1l-0.4-1.2l-1-0.2l0.5-2.2l-0.3-1.9
			l0.1-0.4l0.7,0.1l3.7,0.8l0.5-0.6l-1.4-3.3l-1.6-0.7L171,310l0-1.9l-1.1-1.4l-0.2-2.3l3.5-16.2l3.5-16.3l3.6-16.7l3.5-16.3
			l3.5-16.4l3.6-16.8l3.6-16.5l3.6-16.5l3.6-16.6l3.7-17l3.6-16.7l3.6-16.7l3.6-16.8l3.7-17.2l3.7-16.9l3.7-16.9l13.8,2.9l14.1,2.9
			l13.8,2.8l13.8,2.7l13.9,2.6l14.2,2.5l13.9,2.4l13.9,2.3l14.2,2.2l13.9,2.1l13.9,2l14,1.9l14.3,1.9l14,1.7l14,1.6l14.3,1.6
			l-1.6,15.3l-1.7,15.6l-1.6,15.2l-1.7,15.6l-1.6,15.1l-1.7,15.5l-1.6,15.1l-1.6,15l-1.6,15.4l-1.6,14.9l-1.6,15.3l-1.6,14.9
			l-1.6,15.2l-1.6,14.8l-1.6,15.1l-1.6,14.7l-1.6,15.1l-1.6,14.7l-1.6,15l-1.6,14.6l-1.6,14.6l-1.6,14.9l-1.6,14.5l-1.6,14.9
			l-1.5,14.5l-1.6,14.8l-1.5,14.4l-1.6,14.8l-1.5,14.4l-1.6,14.7l-1.5,14.4L400.3,551.9z"/>
		<g>
			<g>
				<g>
					<path class="st3" d="M329,512.7c0,1.7-1.3,3-3,3s-3-1.3-3-3s1.3-3,3-3S329,511,329,512.7z"/>
					<path class="st3" d="M313.6,509.2c0,1.7-1.3,3-3,3s-3-1.3-3-3s1.3-3,3-3S313.6,507.5,313.6,509.2z"/>
					<path class="st3" d="M389.4,505.4c0,1.7-1.3,3-3,3s-3-1.3-3-3s1.3-3,3-3S389.4,503.7,389.4,505.4z"/>
					<path class="st3" d="M359.4,479.1c0,1.7-1.3,3-3,3s-3-1.3-3-3s1.3-3,3-3S359.4,477.4,359.4,479.1z"/>
					<path class="st3" d="M306.3,471.4c0,1.7-1.3,3-3,3s-3-1.3-3-3s1.3-3,3-3S306.3,469.7,306.3,471.4z"/>
					<path class="st3" d="M304.1,450.9c0,1.7-1.3,3-3,3s-3-1.3-3-3s1.3-3,3-3S304.1,449.3,304.1,450.9z"/>
					<path class="st3" d="M270.3,443.8c0,1.7-1.3,3-3,3s-3-1.3-3-3s1.3-3,3-3S270.3,442.2,270.3,443.8z"/>
					<path class="st3" d="M364.2,433.4c0,1.7-1.3,3-3,3s-3-1.3-3-3s1.3-3,3-3S364.2,431.8,364.2,433.4z"/>
					<path class="st3" d="M313.4,409.8c0,1.7-1.3,3-3,3s-3-1.3-3-3s1.3-3,3-3S313.4,408.1,313.4,409.8z"/>
					<path class="st3" d="M318.5,400.1c0,1.7-1.3,3-3,3s-3-1.3-3-3s1.3-3,3-3S318.5,398.4,318.5,400.1z"/>
					<path class="st3" d="M347.5,401.8c0,1.7-1.3,3-3,3s-3-1.3-3-3s1.3-3,3-3S347.5,400.2,347.5,401.8z"/>
					<path class="st3" d="M290.7,390.9c0,1.7-1.3,3-3,3s-3-1.3-3-3s1.3-3,3-3S290.7,389.2,290.7,390.9z"/>
					<path class="st3" d="M321.9,391.7c0,1.7-1.3,3-3,3s-3-1.3-3-3s1.3-3,3-3S321.9,390,321.9,391.7z"/>
					<path class="st3" d="M398.2,386.1c0,1.7-1.3,3-3,3s-3-1.3-3-3s1.3-3,3-3S398.2,384.4,398.2,386.1z"/>
					<path class="st3" d="M348.2,371.9c0,1.7-1.3,3-3,3s-3-1.3-3-3s1.3-3,3-3S348.2,370.3,348.2,371.9z"/>
					<path class="st3" d="M401.2,363.7c0,1.7-1.3,3-3,3s-3-1.3-3-3s1.3-3,3-3S401.2,362.1,401.2,363.7z"/>
					<path class="st3" d="M334.8,346.8c0,1.7-1.3,3-3,3s-3-1.3-3-3s1.3-3,3-3S334.8,345.1,334.8,346.8z"/>
					<path class="st3" d="M260,333c0,1.7-1.3,3-3,3s-3-1.3-3-3s1.3-3,3-3S260,331.4,260,333z"/>
					<path class="st3" d="M315.4,318.8c0,1.7-1.3,3-3,3s-3-1.3-3-3s1.3-3,3-3S315.4,317.2,315.4,318.8z"/>
					<path class="st3" d="M284.1,312.9c0,1.7-1.3,3-3,3s-3-1.3-3-3s1.3-3,3-3S284.1,311.2,284.1,312.9z"/>
					<path class="st3" d="M408.5,324.8c0,1.7-1.3,3-3,3s-3-1.3-3-3s1.3-3,3-3S408.5,323.1,408.5,324.8z"/>
					<path class="st3" d="M347.2,297c0,1.7-1.3,3-3,3s-3-1.3-3-3s1.3-3,3-3S347.2,295.3,347.2,297z"/>
					<path class="st3" d="M380.1,299.4c0,1.7-1.3,3-3,3s-3-1.3-3-3s1.3-3,3-3S380.1,297.7,380.1,299.4z"/>
					<path class="st3" d="M214.4,254.1c0,1.7-1.3,3-3,3s-3-1.3-3-3s1.3-3,3-3S214.4,252.5,214.4,254.1z"/>
					<path class="st3" d="M273,253.5c0,1.7-1.3,3-3,3s-3-1.3-3-3s1.3-3,3-3S273,251.8,273,253.5z"/>
					<path class="st3" d="M259.1,215.4c0,1.7-1.3,3-3,3s-3-1.3-3-3s1.3-3,3-3S259.1,213.7,259.1,215.4z"/>
					<path class="st3" d="M405.2,215.8c0,1.7-1.3,3-3,3s-3-1.3-3-3s1.3-3,3-3S405.2,214.1,405.2,215.8z"/>
					<path class="st3" d="M306.2,126.8c0,1.7-1.3,3-3,3s-3-1.3-3-3s1.3-3,3-3S306.2,125.2,306.2,126.8z"/>
				</g>
			</g>
		</g>
	</g>
</g>
</svg>
